<svg fill="currentColor" viewBox="0 0 24 24" color="currentColor" width="24px" height="24px" class="flex-none" xmlns="http://www.w3.org/2000/svg"><path fill-rule="evenodd" clip-rule="evenodd" d="M19.0322 6.07636C19.8072 6.2838 20.4162 6.89279 20.6236 7.66773C20.9985 9.07092 21 12.0003 21 12.0003C21 12.0003 21 14.9297 20.6236 16.3329C20.4162 17.1078 19.8072 17.7168 19.0322 17.9242C17.6291 18.3006 12 18.3006 12 18.3006C12 18.3006 6.37092 18.3006 4.96773 17.9242C4.19279 17.7168 3.5838 17.1078 3.37636 16.3329C3 14.9297 3 12.0003 3 12.0003C3 12.0003 3 9.07092 3.37636 7.66773C3.5838 6.89279 4.19279 6.2838 4.96773 6.07636C6.37092 5.7 12 5.7 12 5.7C12 5.7 17.6291 5.7 19.0322 6.07636ZM14.8746 12.0005L10.1983 14.7002V9.30082L14.8746 12.0005Z"></path></svg>