<svg width="69" height="49" viewBox="0 0 69 49" fill="none" xmlns="http://www.w3.org/2000/svg">
<path fill-rule="evenodd" clip-rule="evenodd" d="M0.359375 1.07169H10.7828V29.0457C10.7828 33.4727 12.8078 36.1098 14.4091 37.2402C12.7139 38.7472 7.53337 40.0659 3.67157 36.8633C1.39478 34.9756 0.359375 31.8714 0.359375 28.9514V1.07169ZM65.5016 24.3091V21.3693H68.6806V11.0558H65.1895C63.8493 4.86379 58.3366 0.223877 51.7438 0.223877C44.1488 0.223877 37.9922 6.38084 37.9922 13.9754V38.0606C40.156 38.3647 42.7337 38.0228 44.927 36.2041C47.2034 34.316 48.2388 31.2122 48.2388 28.2922V27.4049H53.4446V17.0914H48.2388V13.9754H48.2513C48.2513 12.0468 49.8148 10.4833 51.7438 10.4833C53.6724 10.4833 55.2422 12.0468 55.2422 13.9754V24.3091C55.2422 31.9037 61.4054 38.0606 69 38.0606V27.8012C67.0714 27.8012 65.5016 26.2377 65.5016 24.3091ZM26.0244 11.0558V26.1919C26.0244 27.0512 25.3114 27.7478 24.4317 27.7478C23.552 27.7478 22.8391 27.0512 22.8391 26.1919V11.0558H12.5252V28.8574C12.5252 32.0597 13.6113 36.1098 18.5536 37.4285C23.501 38.7486 26.3711 36.0158 26.3711 36.0158C26.1097 37.8162 24.414 39.1349 21.6827 39.4175C19.616 39.6311 16.973 38.9466 15.6547 38.3814V47.8127C19.014 48.8034 22.5672 49.1235 26.0445 48.4487C32.355 47.2243 36.3379 41.9498 36.3379 34.9326V11.0558H26.0244Z" fill="currentColor"></path>
</svg>