<svg width="259" height="76" viewBox="0 0 259 76" fill="none" xmlns="http://www.w3.org/2000/svg">
<path d="M127.744 13.2754C121.888 13.2754 117.75 17.5324 117.75 23.7196C117.75 29.9068 121.888 34.2067 127.744 34.2067C133.6 34.2067 137.738 29.9042 137.738 23.7196C137.738 17.5349 133.6 13.2754 127.744 13.2754ZM127.747 30.4373C124.629 30.4373 122.502 27.9387 122.502 23.7196C122.502 19.5005 124.631 17.0448 127.747 17.0448C130.862 17.0448 132.991 19.5005 132.991 23.7196C132.991 27.9387 130.862 30.4373 127.747 30.4373Z" fill="currentColor"></path>
<path d="M156.979 33.6913C159.582 33.6913 161.608 32.6808 163.007 30.786V33.6762C163.007 37.774 160.756 39.4061 157.96 39.4061C154.291 39.4061 153.225 37.3142 152.902 35.2956L148.023 36.4199C148.741 40.5809 152.72 42.9506 157.568 42.9506C164.395 42.9506 167.745 39.3379 167.745 32.6959V13.7883H163.222L163.23 16.969C162.346 14.9226 160.292 13.2754 156.942 13.2754C152.093 13.2754 147.983 17.4591 147.983 23.4518C147.983 30.0634 151.697 33.6939 156.982 33.6939L156.979 33.6913ZM157.881 17.06C161.072 17.06 163.007 19.2453 163.007 23.4493C163.007 27.3399 161.277 29.8537 157.881 29.8537C154.971 29.8537 152.717 27.6684 152.717 23.4493C152.717 19.4499 155.072 17.06 157.881 17.06Z" fill="currentColor"></path>
<path d="M200.982 30.2097C199.271 30.2097 198.402 29.3558 198.402 27.6707V17.2644H205.112V13.7906H198.402V7.24463H195.105C195.105 11.3197 193.362 13.9497 190.004 14.1771V17.2644H193.701V28.3831C193.774 32.2612 195.871 34.2065 200.08 34.2065C202.035 34.2065 204.114 33.5648 205.514 32.3496L204.41 28.7596C203.7 29.4644 202.561 30.2097 200.984 30.2097H200.982Z" fill="currentColor"></path>
<path d="M104.248 34.2095C109.943 34.2095 114.432 31.097 116.112 26.0997L112.062 23.5127C111.178 27.3124 108.136 29.7403 104.208 29.7403C99.4582 29.7403 96.1562 26.1098 96.1562 20.1702C96.1562 14.2306 99.6199 10.6381 104.208 10.6381C108.018 10.6381 110.65 13.1165 111.886 17.0552L116.031 14.4075C114.392 9.32688 109.902 6.17139 104.205 6.17139C96.6261 6.17139 90.9922 12.015 90.9922 20.1702C90.9922 28.3255 96.7903 34.207 104.248 34.207V34.2095Z" fill="currentColor"></path>
<path d="M145.191 6.68896H140.522V33.6913H145.191V6.68896Z" fill="currentColor"></path>
<path d="M170.632 28.9265C170.632 32.1603 173.103 34.2093 176.627 34.2093C180.152 34.2093 182.456 32.4029 183.464 29.4672C183.196 32.5519 184.73 34.2093 187.137 34.2093C188.37 34.2093 189.697 33.7419 190.543 32.9284L189.803 30.5232C189.575 30.7026 189.28 30.8491 188.893 30.8491C188.115 30.8491 187.89 30.3994 187.89 29.4141L187.933 20.8925C188.014 16.0165 184.669 13.2754 179.874 13.2754C175.612 13.2754 172.416 15.4456 171.352 18.8866L174.907 21.1477C175.544 18.6364 177.418 17.0019 179.791 17.0019C182.163 17.0019 183.34 18.4368 183.34 20.7713V21.3422C172.873 22.4412 170.632 24.8767 170.632 28.9265ZM183.34 24.9095C183.214 28.4339 180.799 30.7278 178.095 30.7278C176.294 30.7278 175.352 29.5935 175.352 28.2444C175.352 25.9934 177.514 25.1824 183.34 24.3032V24.9095Z" fill="currentColor"></path>
<path d="M203.839 41.5083H199.17V68.5106H203.839V41.5083Z" fill="currentColor"></path>
<path d="M140.523 41.5083H135.854V68.5106H140.523V41.5083Z" fill="currentColor"></path>
<path d="M230.415 48.605L225.168 62.7327L220.049 48.605H214.888L222.919 68.5106H227.26L235.331 48.605H230.415Z" fill="currentColor"></path>
<path d="M186.389 48.0918C180.533 48.0918 176.395 52.3488 176.395 58.536C176.395 64.7232 180.533 69.0231 186.389 69.0231C192.246 69.0231 196.384 64.7207 196.384 58.536C196.384 52.3513 192.246 48.0918 186.389 48.0918ZM186.395 65.2537C183.277 65.2537 181.15 62.7551 181.15 58.536C181.15 54.3169 183.279 51.8612 186.395 51.8612C189.51 51.8612 191.639 54.3169 191.639 58.536C191.639 62.7551 189.51 65.2537 186.395 65.2537Z" fill="currentColor"></path>
<path d="M132.241 65.6685C131.463 65.6685 131.238 65.2188 131.238 64.2335L131.281 55.7119C131.362 50.8359 128.017 48.0947 123.222 48.0947C118.96 48.0947 115.764 50.2649 114.7 53.7059L118.255 55.967C118.891 53.4558 120.766 51.8212 123.138 51.8212C125.511 51.8212 126.688 53.2562 126.688 55.5906V56.1616C116.221 57.2606 113.98 59.696 113.98 63.7459C113.98 66.9797 116.451 69.0286 119.975 69.0286C123.5 69.0286 125.804 67.2222 126.812 64.2865C126.544 67.3713 128.077 69.0286 130.485 69.0286C131.718 69.0286 133.044 68.5612 133.891 67.7477L133.15 65.3426C132.923 65.5219 132.627 65.6685 132.241 65.6685ZM126.688 59.7263C126.562 63.2507 124.146 65.5447 121.443 65.5447C119.642 65.5447 118.699 64.4103 118.699 63.0612C118.699 60.8102 120.862 59.9992 126.688 59.12V59.7263Z" fill="currentColor"></path>
<path d="M216.244 34.2066C220.425 34.2066 223.659 32.2007 225.054 29.0452L221.651 26.8017C220.713 29.2776 218.664 30.4802 216.287 30.4802C213.175 30.4802 211.169 28.3504 210.84 24.7882H225.673C226.196 16.3373 221.201 13.2778 216.12 13.2778C210.509 13.2778 206.29 17.2494 206.29 23.722C206.29 30.1947 210.35 34.2041 216.247 34.2041L216.244 34.2066ZM216.125 16.9588C218.667 16.9588 220.66 18.4342 220.878 21.5493H211.004C211.618 18.6389 213.584 16.9588 216.123 16.9588H216.125Z" fill="currentColor"></path>
<path d="M244.828 48.0943C239.217 48.0943 234.998 52.0659 234.998 58.5385C234.998 65.0112 239.058 69.0206 244.954 69.0206C249.135 69.0206 252.369 67.0146 253.764 63.8592L250.361 61.6157C249.423 64.0916 247.374 65.2942 244.997 65.2942C241.885 65.2942 239.879 63.1644 239.55 59.6022H254.383C254.906 51.1513 249.911 48.0918 244.83 48.0918L244.828 48.0943ZM239.717 56.3658C240.331 53.4554 242.296 51.7753 244.835 51.7753C247.374 51.7753 249.37 53.2507 249.588 56.3658H239.714H239.717Z" fill="currentColor"></path>
<path d="M210.388 40.9927C208.751 40.9927 207.439 42.1801 207.439 43.941C207.439 45.5781 208.748 46.8893 210.388 46.8893C212.151 46.8893 213.336 45.5806 213.336 43.941C213.336 42.1776 212.149 40.9927 210.388 40.9927Z" fill="currentColor"></path>
<path d="M212.72 48.605H208.051V68.5081H212.72V48.605Z" fill="currentColor"></path>
<path d="M104.662 41.5083H93.1089V68.5106H98.0682V58.9936H104.662C110.114 58.9936 113.676 55.3808 113.676 50.2295C113.717 45.116 110.107 41.5083 104.662 41.5083ZM104.255 54.6482H98.0682V45.8462H104.255C106.875 45.8462 108.596 47.4883 108.596 50.227C108.596 52.9656 106.875 54.6482 104.255 54.6482Z" fill="currentColor"></path>
<path d="M167.707 48.0919C164.715 48.0919 162.381 49.7694 161.355 52.8036C160.658 49.8553 158.407 48.0919 155.537 48.0919C152.667 48.0919 150.456 49.6684 149.39 52.4525V48.6047H144.721V68.5078H149.39V56.9545C149.39 54.2083 150.661 51.8537 153.324 51.8537C155.575 51.8537 156.886 53.2458 156.886 56.0728V68.5053H161.6V56.9368C161.6 54.1906 162.871 51.8562 165.534 51.8562C167.785 51.8562 169.096 53.2483 169.096 56.0753V68.5053H173.765V55.0547C173.765 50.7522 171.393 48.0894 167.704 48.0894L167.707 48.0919Z" fill="currentColor"></path>
<path d="M14.6617 29.3157L16.6601 26.7135C23.2667 31.7664 31.4042 34.2801 39.4963 34.6945L44.1702 10.9639H25.8183C13.5071 10.9639 3.34338 20.8497 3.30043 33.1609C3.25748 45.4999 13.2469 55.5146 25.5758 55.5146H35.396L38.0967 41.7937C30.2295 40.8437 22.1626 36.9228 14.6617 29.3132V29.3157Z" fill="currentColor"></path>
<path d="M58.0403 10.9663H47.4066L42.7226 34.7525C51.3453 34.6085 60.1422 32.1073 67.196 26.7134L69.1944 29.3156C60.1826 38.4966 50.2488 42.2231 41.2927 42.021L36.9194 64.2332H53.5331L55.2486 55.5171H58.2853C70.6142 55.5171 80.6036 45.5024 80.5607 33.1634C80.5177 20.8522 70.354 10.9663 58.0428 10.9663H58.0403Z" fill="currentColor"></path>
</svg>