<svg width="225" height="43" viewBox="0 0 225 43" fill="none" xmlns="http://www.w3.org/2000/svg">
<g clip-path="url(#clip0_680_9860)">
<path d="M46.9463 7.71777C60.0602 7.71777 60.0602 7.71777 61.4964 8.1097C61.5941 8.1359 61.5941 8.1359 61.6937 8.16263C62.6579 8.43319 63.5428 8.83637 64.3443 9.44053C64.4472 9.51675 64.4472 9.51675 64.5522 9.5945C66.0951 10.8013 66.8389 12.5811 67.0756 14.489C67.2653 16.2987 67.0375 18.2831 65.8977 19.7685C65.8178 19.8638 65.7373 19.9586 65.656 20.0527C65.6202 20.0984 65.5843 20.144 65.5473 20.1911C65.1383 20.6952 64.6204 21.0829 64.0476 21.3843C63.9974 21.4109 63.9471 21.4375 63.8954 21.4648C63.7966 21.5159 63.6969 21.5654 63.5964 21.613C63.3456 21.7414 63.2504 21.815 63.152 22.0829C63.1498 22.3315 63.1498 22.3315 63.3035 22.5128C63.5515 22.698 63.7973 22.8141 64.0811 22.934C64.5744 23.1546 64.9857 23.3983 65.3799 23.7739C65.4226 23.8129 65.4653 23.852 65.5093 23.8923C66.4516 24.8496 66.6738 26.2191 66.7563 27.4985C66.7648 27.6251 66.7648 27.6251 66.7734 27.7543C66.8621 29.1081 66.9287 30.4634 66.9992 31.8183C67.015 32.1214 67.031 32.4245 67.047 32.7275C67.0625 33.0208 67.0779 33.314 67.0932 33.6072C67.1005 33.7465 67.1078 33.8859 67.1152 34.0252C67.1253 34.2184 67.1354 34.4115 67.1454 34.6046C67.1484 34.6615 67.1514 34.7183 67.1545 34.7768C67.1572 34.8295 67.1599 34.8822 67.1627 34.9364C67.1651 34.9818 67.1674 35.0272 67.1699 35.0739C67.1757 35.235 67.1749 35.3963 67.1749 35.5575C65.7623 35.5575 64.3498 35.5575 62.8944 35.5575C62.8168 34.9374 62.8168 34.9374 62.8049 34.6933C62.8021 34.6378 62.7993 34.5823 62.7964 34.5252C62.7937 34.4663 62.7909 34.4074 62.7881 34.3467C62.7849 34.2831 62.7817 34.2194 62.7785 34.1539C62.7717 34.0164 62.765 33.879 62.7584 33.7415C62.7478 33.5225 62.737 33.3035 62.7261 33.0845C62.6951 32.4621 62.6646 31.8397 62.6343 31.2172C62.6157 30.8354 62.5968 30.4537 62.5777 30.0719C62.5705 29.9279 62.5635 29.7839 62.5566 29.6398C62.5218 28.9121 62.4799 28.186 62.413 27.4605C62.4078 27.4018 62.4025 27.343 62.3971 27.2825C62.3069 26.3596 62.0229 25.5715 61.2936 24.9583C60.0935 24.1012 58.6209 24.1556 57.2138 24.1521C57.06 24.151 56.9062 24.1498 56.7524 24.1486C56.1878 24.1446 55.6231 24.1424 55.0584 24.1399C53.794 24.1328 52.5295 24.1257 51.2267 24.1184C51.2267 27.8933 51.2267 31.6682 51.2267 35.5575C49.8142 35.5575 48.4016 35.5575 46.9463 35.5575C46.9463 26.3704 46.9463 17.1833 46.9463 7.71777ZM51.2267 11.1633C51.2267 14.3242 51.2267 17.4851 51.2267 20.7418C52.3274 20.7461 53.4282 20.7503 54.5622 20.7547C55.0796 20.7576 55.0796 20.7576 55.6073 20.7604C55.9221 20.7611 55.9221 20.7611 56.2369 20.7615C56.3749 20.7619 56.5128 20.7626 56.6508 20.7636C58.4028 20.7764 60.0915 20.6301 61.4379 19.3811C62.0334 18.7424 62.4133 17.8786 62.5492 17.0207C62.5569 16.9738 62.5645 16.9269 62.5724 16.8785C62.7526 15.5568 62.5789 14.0843 61.8071 12.9679C60.963 11.8844 59.7774 11.3782 58.4403 11.1826C57.8378 11.1149 57.2257 11.1386 56.6205 11.1431C56.4818 11.1434 56.343 11.1436 56.2043 11.1437C55.6958 11.1448 55.1873 11.1477 54.6787 11.1504C52.97 11.1568 52.97 11.1568 51.2267 11.1633Z" fill="currentColor"></path>
<path d="M220.857 6.75293C222.224 6.75293 223.591 6.75293 225 6.75293C225 16.2584 225 25.7639 225 35.5574C223.701 35.5574 222.402 35.5574 221.064 35.5574C221.047 34.5065 221.047 34.5065 221.044 34.1762C221.042 34.0901 221.04 34.0041 221.037 33.9154C221.036 33.8274 221.035 33.7393 221.033 33.6486C220.99 33.3868 220.932 33.3005 220.719 33.1456C220.455 33.1525 220.313 33.2401 220.124 33.4169C220.076 33.4603 220.029 33.5038 219.979 33.5485C219.869 33.6523 219.759 33.7562 219.649 33.8602C218.041 35.358 216.21 36.0339 214.031 35.9878C212.376 35.9249 210.875 35.3873 209.604 34.317C209.538 34.2659 209.538 34.2659 209.47 34.2137C207.508 32.6345 206.781 29.8705 206.497 27.4949C206.43 26.8407 206.414 26.1883 206.415 25.531C206.415 25.4828 206.415 25.4345 206.415 25.3849C206.424 22.3082 207.093 19.1409 209.328 16.8827C210.85 15.4585 212.798 14.9598 214.843 15.0022C216.672 15.0699 218.297 15.7421 219.576 17.0507C219.627 17.106 219.678 17.1614 219.731 17.2184C219.911 17.3835 220.08 17.4779 220.305 17.5718C220.493 17.5734 220.493 17.5734 220.65 17.5029C220.813 17.2599 220.806 17.159 220.808 16.8711C220.808 16.7821 220.809 16.6931 220.81 16.6014C220.81 16.5026 220.81 16.4037 220.81 16.3049C220.811 16.201 220.812 16.0971 220.812 15.9932C220.814 15.7109 220.815 15.4286 220.816 15.1462C220.817 14.8513 220.819 14.5564 220.821 14.2614C220.824 13.7028 220.827 13.1442 220.829 12.5855C220.832 11.9496 220.835 11.3137 220.838 10.6777C220.846 9.36946 220.852 8.0612 220.857 6.75293ZM212.268 19.6838C210.599 21.7665 210.499 24.7805 210.762 27.3228C210.956 28.8743 211.409 30.4034 212.504 31.5606C212.544 31.6049 212.585 31.6491 212.627 31.6947C213.557 32.6046 214.849 32.8368 216.097 32.83C217.263 32.8015 218.398 32.4226 219.248 31.5994C220.955 29.7055 221.177 26.9853 221.055 24.55C220.932 22.6426 220.524 20.7614 219.131 19.3635C219.069 19.2977 219.069 19.2977 219.005 19.2305C218.137 18.3842 216.862 18.1555 215.693 18.1629C214.364 18.2038 213.173 18.6904 212.268 19.6838Z" fill="currentColor"></path>
<path d="M92.0293 6.75293C93.3735 6.75293 94.7177 6.75293 96.1026 6.75293C96.1047 7.22304 96.1047 7.22304 96.1068 7.70265C96.1114 8.73683 96.1167 9.77101 96.1225 10.8052C96.1259 11.4324 96.1292 12.0595 96.1318 12.6867C96.134 13.2333 96.1368 13.7799 96.1401 14.3266C96.1419 14.616 96.1434 14.9054 96.1443 15.1949C96.1452 15.4674 96.1467 15.7398 96.1487 16.0123C96.1493 16.1122 96.1497 16.2122 96.1499 16.3122C96.1501 16.4488 96.1513 16.5853 96.1524 16.7219C96.1528 16.7983 96.1532 16.8747 96.1536 16.9535C96.1723 17.1654 96.2098 17.3153 96.3098 17.5029C96.5006 17.5903 96.5006 17.5903 96.724 17.5718C96.9726 17.4451 97.1541 17.2837 97.3453 17.0852C98.7224 15.6806 100.436 15.0422 102.387 15.0026C104.547 14.9837 106.327 15.6298 107.908 17.1325C108.604 17.8468 109.089 18.6662 109.496 19.5702C109.516 19.6126 109.535 19.6549 109.555 19.6986C109.874 20.414 110.089 21.149 110.256 21.9132C110.269 21.9741 110.283 22.035 110.297 22.0977C110.77 24.2986 110.748 26.8852 110.256 29.0799C110.243 29.139 110.231 29.1982 110.218 29.2591C109.735 31.4824 108.606 33.5975 106.666 34.8683C104.895 35.9662 102.77 36.2383 100.744 35.8019C99.3019 35.4478 98.1255 34.6135 97.063 33.6072C96.731 33.2598 96.731 33.2598 96.2968 33.1499C96.0822 33.1992 96.0822 33.1992 95.9646 33.4212C95.939 33.6484 95.939 33.6484 95.936 33.9087C95.9335 33.9949 95.931 34.0811 95.9285 34.17C95.9262 34.2796 95.9238 34.3893 95.9214 34.5022C95.9129 34.8504 95.9043 35.1987 95.8955 35.5574C94.6197 35.5574 93.3438 35.5574 92.0293 35.5574C92.0293 26.0519 92.0293 16.5465 92.0293 6.75293ZM100.568 18.2087C99.5547 18.3122 98.6782 18.6268 97.8977 19.2946C97.8525 19.3328 97.8074 19.371 97.7609 19.4103C97.4098 19.7337 97.1692 20.1248 96.9311 20.535C96.8841 20.6157 96.8841 20.6157 96.8362 20.6981C95.5688 23.0463 95.5941 26.502 96.3098 29.0109C96.7153 30.3243 97.3791 31.563 98.6096 32.2626C99.9701 32.9631 101.44 33.0367 102.894 32.5921C104.191 32.0945 105.002 31.1008 105.574 29.8723C105.739 29.4697 105.855 29.0629 105.958 28.6406C105.972 28.5845 105.985 28.5285 106 28.4708C106.22 27.5043 106.278 26.544 106.273 25.5568C106.273 25.5012 106.273 25.4457 106.273 25.3884C106.265 23.3977 106.016 21.1638 104.595 19.6391C104.552 19.5906 104.51 19.5421 104.466 19.4922C103.624 18.5783 102.456 18.2743 101.256 18.1791C101.025 18.1722 100.798 18.192 100.568 18.2087Z" fill="currentColor"></path>
<path d="M143.74 6.75293C145.084 6.75293 146.429 6.75293 147.814 6.75293C147.815 7.07814 147.816 7.40335 147.817 7.73842C147.82 8.81221 147.825 9.88599 147.83 10.9598C147.833 11.6109 147.836 12.262 147.837 12.9131C147.839 13.4807 147.841 14.0482 147.845 14.6158C147.846 14.9163 147.847 15.2167 147.848 15.5172C147.848 15.8002 147.85 16.0832 147.852 16.3661C147.852 16.4698 147.853 16.5735 147.853 16.6772C147.844 17.3932 147.844 17.3932 148.09 18.0542C148.403 18.0955 148.403 18.0955 148.685 17.9758C148.795 17.8643 148.896 17.7489 148.996 17.6278C149.065 17.5478 149.134 17.4679 149.204 17.388C149.237 17.349 149.27 17.31 149.304 17.2698C149.444 17.1097 149.594 16.9617 149.747 16.8138C149.792 16.7693 149.838 16.7248 149.885 16.679C151.395 15.2805 153.275 14.9653 155.265 15.0125C156.894 15.0868 158.325 15.7452 159.457 16.9067C160.868 18.4975 161.105 20.7266 161.093 22.7589C161.093 22.8996 161.093 23.0404 161.093 23.1811C161.093 23.5584 161.092 23.9358 161.09 24.3131C161.089 24.7092 161.089 25.1053 161.089 25.5015C161.088 26.2494 161.086 26.9974 161.084 27.7454C161.082 28.5978 161.081 29.4502 161.08 30.3027C161.077 32.0543 161.074 33.8058 161.069 35.5574C159.725 35.5574 158.381 35.5574 156.996 35.5574C156.994 34.9895 156.994 34.9895 156.993 34.4101C156.989 33.1554 156.985 31.9006 156.98 30.6458C156.976 29.8855 156.974 29.1252 156.972 28.3649C156.97 27.7016 156.968 27.0382 156.965 26.3749C156.963 26.0243 156.962 25.6736 156.961 25.323C156.961 24.9917 156.96 24.6604 156.958 24.3291C156.957 24.2087 156.957 24.0883 156.957 23.9679C156.958 22.3522 156.824 20.6249 155.675 19.3807C154.856 18.6056 153.741 18.3999 152.646 18.3988C151.413 18.4678 150.253 18.9365 149.401 19.8459C148.046 21.5404 147.877 23.5209 147.868 25.6065C147.868 25.7159 147.867 25.8254 147.866 25.9349C147.865 26.2282 147.863 26.5216 147.862 26.815C147.86 27.123 147.858 27.431 147.856 27.739C147.853 28.3205 147.85 28.9021 147.847 29.4836C147.843 30.1464 147.84 30.8092 147.836 31.4719C147.828 32.8338 147.821 34.1956 147.814 35.5574C146.469 35.5574 145.125 35.5574 143.74 35.5574C143.74 26.0519 143.74 16.5465 143.74 6.75293Z" fill="currentColor"></path>
<path d="M198.42 15.5732C198.463 15.588 198.507 15.6028 198.552 15.618C200.633 16.333 202.179 17.9074 203.132 19.8542C203.829 21.3371 204.18 23.0336 204.219 24.6693C204.22 24.7275 204.222 24.7857 204.223 24.8456C204.254 26.3308 204.149 27.7703 203.805 29.2174C203.793 29.2662 203.782 29.3151 203.771 29.3654C203.464 30.6594 202.853 31.9094 202.01 32.9385C201.956 33.0045 201.902 33.0705 201.847 33.1385C200.329 34.9005 198.07 35.7564 195.797 35.9562C193.222 36.1351 190.551 35.6823 188.519 33.9937C186.694 32.3719 185.755 30.2942 185.371 27.9081C185.363 27.8606 185.355 27.813 185.347 27.7641C185.1 26.265 185.128 24.5813 185.371 23.0844C185.38 23.0303 185.388 22.9762 185.397 22.9204C185.786 20.54 186.825 18.2754 188.772 16.7721C188.991 16.6154 189.214 16.471 189.445 16.3312C189.522 16.2839 189.6 16.2367 189.68 16.188C192.221 14.7117 195.686 14.6201 198.42 15.5732ZM191.154 19.693C189.774 21.2601 189.567 23.4882 189.565 25.4833C189.565 25.5432 189.565 25.6032 189.565 25.6649C189.566 26.5643 189.595 27.44 189.79 28.3216C189.8 28.3694 189.81 28.4172 189.821 28.4664C189.955 29.0632 190.15 29.6289 190.411 30.1821C190.457 30.2789 190.457 30.2789 190.503 30.3776C190.75 30.8633 191.063 31.2445 191.447 31.6292C191.489 31.6732 191.532 31.7172 191.575 31.7625C192.458 32.6092 193.713 32.895 194.902 32.8801C196.23 32.8116 197.391 32.3478 198.299 31.3684C199.467 30.041 199.875 28.0777 199.884 26.352C199.884 26.2903 199.884 26.2287 199.885 26.1652C199.885 26.0352 199.886 25.9052 199.886 25.7752C199.887 25.5812 199.889 25.3873 199.891 25.1933C199.902 23.2637 199.587 21.2122 198.282 19.7078C198.24 19.6519 198.198 19.596 198.155 19.5385C197.433 18.6941 196.266 18.3044 195.191 18.2028C193.654 18.0926 192.208 18.5545 191.154 19.693Z" fill="currentColor"></path>
<path d="M180.127 17.2453C182.217 19.1505 182.973 22.0462 183.105 24.7784C183.196 27.6045 182.776 30.814 180.815 33.0077C180.767 33.0639 180.72 33.12 180.671 33.1778C179.979 33.9816 179.195 34.5276 178.26 35.0061C178.194 35.0401 178.128 35.0742 178.06 35.1092C175.54 36.3232 172.364 36.246 169.767 35.3497C167.749 34.6239 166.172 33.1074 165.223 31.2029C163.719 27.9951 163.698 23.9135 164.888 20.6125C165.337 19.4227 165.994 18.4283 166.869 17.5029C166.912 17.4555 166.955 17.408 166.999 17.3592C170.218 13.9436 176.771 14.2708 180.127 17.2453ZM170.239 19.4755C169.455 20.2958 169.016 21.3307 168.75 22.4171C168.736 22.4725 168.722 22.5279 168.708 22.585C168.487 23.5491 168.43 24.5239 168.435 25.5094C168.435 25.5616 168.435 25.6138 168.435 25.6675C168.439 26.5419 168.488 27.3941 168.664 28.2529C168.675 28.3097 168.687 28.3664 168.698 28.4249C169.008 29.8872 169.691 31.3211 170.972 32.1679C172.21 32.9057 173.632 33.0257 175.022 32.698C176.131 32.4045 177.031 31.6817 177.656 30.7337C179.07 28.2868 179.133 24.8816 178.441 22.2028C178.072 20.8919 177.428 19.6444 176.258 18.8811C174.346 17.8237 171.867 17.9492 170.239 19.4755Z" fill="currentColor"></path>
<path d="M85.4702 16.9517C85.5367 17.0054 85.6032 17.0592 85.6717 17.1145C87.7424 18.8957 88.5577 21.6811 88.7669 24.3122C88.7744 24.4772 88.7801 24.6423 88.7841 24.8075C88.7855 24.8573 88.7869 24.9072 88.7884 24.9586C88.8609 27.8367 88.342 30.8225 86.4368 33.0767C86.3958 33.1279 86.3549 33.1792 86.3127 33.232C84.9342 34.9061 82.6627 35.7334 80.563 35.9386C77.9332 36.1708 75.1626 35.7215 73.0841 33.9938C71.2571 32.3707 70.3631 30.3616 69.9363 27.9773C69.9226 27.9025 69.9226 27.9025 69.9085 27.8263C69.3875 24.8302 69.8216 21.1807 71.5704 18.6337C72.9729 16.6649 74.9807 15.5554 77.3295 15.131C80.1501 14.7151 83.2042 15.1187 85.4702 16.9517ZM75.7529 19.622C74.5841 21.0689 74.1443 22.9684 74.1337 24.7999C74.1332 24.8563 74.1327 24.9127 74.1322 24.9709C74.1175 27.1729 74.1786 29.6133 75.7356 31.3539C75.8022 31.4312 75.8022 31.4312 75.8702 31.5101C76.6154 32.3185 77.665 32.7812 78.7602 32.8638C78.8101 32.8658 78.86 32.8679 78.9115 32.87C78.9692 32.8727 79.027 32.8755 79.0865 32.8783C80.297 32.9079 81.4958 32.5935 82.4292 31.801C83.8052 30.4858 84.4017 28.4991 84.4457 26.6295C84.4471 26.5191 84.4481 26.4088 84.4486 26.2985C84.449 26.2384 84.4494 26.1783 84.4498 26.1163C84.4505 25.9896 84.4509 25.8628 84.4512 25.736C84.4519 25.547 84.454 25.3581 84.4562 25.1691C84.4686 23.1048 84.0675 20.968 82.6234 19.4031C81.6239 18.4332 80.3218 18.1594 78.9738 18.1773C77.7336 18.2158 76.6012 18.7138 75.7529 19.622Z" fill="currentColor"></path>
<path d="M12.6755 9.69979C12.7937 9.69951 12.7937 9.69951 12.9143 9.69922C13.0436 9.69996 13.0436 9.69996 13.1754 9.70072C13.2664 9.7007 13.3573 9.70068 13.451 9.70066C13.7002 9.70062 13.9494 9.70143 14.1985 9.70239C14.459 9.70325 14.7195 9.70333 14.98 9.7035C15.4732 9.70393 15.9663 9.70506 16.4595 9.70644C17.021 9.70798 17.5825 9.70874 18.144 9.70943C19.2989 9.71087 20.4539 9.7133 21.6088 9.71637C21.6522 9.87644 21.6522 9.87644 21.6779 10.0609C21.5671 10.2127 21.4649 10.3311 21.3327 10.4615C21.2613 10.5353 21.19 10.6091 21.1188 10.683C21.084 10.7184 21.0492 10.7539 21.0133 10.7904C20.8984 10.9084 20.7891 11.0305 20.6811 11.1549C20.644 11.1975 20.6069 11.2401 20.5686 11.2841C20.46 11.4102 20.3516 11.5366 20.2434 11.6631C20.1721 11.7464 20.1008 11.8296 20.0295 11.9129C19.9937 11.9548 19.9578 11.9968 19.9208 12.04C19.7117 12.2837 19.4995 12.5241 19.283 12.7613C19.0209 13.0498 18.7733 13.3479 18.5279 13.6507C18.3835 13.8271 18.2369 14.001 18.0886 14.1741C17.6963 14.6324 17.3198 15.1012 16.9495 15.5774C16.8372 15.7217 16.7244 15.8656 16.6115 16.0095C14.8771 18.2238 13.265 20.5184 11.7362 22.8782C11.6974 22.9378 11.6586 22.9975 11.6187 23.0589C10.3392 25.0315 9.16845 27.0827 8.05053 29.1498C7.93424 29.3645 7.81728 29.5789 7.70031 29.7932C6.67401 31.6814 5.71461 33.6035 4.82511 35.5597C4.75916 35.7043 4.69282 35.8488 4.6264 35.9932C3.86324 37.6537 3.14378 39.3301 2.44521 41.0186C2.41901 41.0819 2.39281 41.1451 2.36582 41.2103C2.24147 41.5111 2.1182 41.8123 1.9971 42.1144C1.97494 42.1693 1.95279 42.2242 1.92996 42.2807C1.88877 42.3829 1.84796 42.4852 1.8076 42.5877C1.67185 42.9234 1.67185 42.9234 1.5183 43C1.40822 43.0058 1.2979 43.0074 1.18767 43.0067C1.09022 43.0064 1.09022 43.0064 0.990796 43.0061C0.922803 43.0055 0.85481 43.0049 0.784756 43.0043C0.716229 43.004 0.647702 43.0037 0.577098 43.0034C0.407552 43.0026 0.238013 43.0014 0.0684707 43C-0.0145659 42.759 0.0141941 42.6053 0.081955 42.3621C0.112692 42.2506 0.112692 42.2506 0.14405 42.1369C0.167523 42.055 0.190996 41.9732 0.21518 41.8888C0.239721 41.8018 0.264261 41.7148 0.289546 41.6252C0.651066 40.3533 1.04996 39.0922 1.44926 37.8318C1.46681 37.7763 1.48435 37.7208 1.50243 37.6637C1.96376 36.2069 2.45056 34.7596 2.96109 33.3192C3.00262 33.2006 3.04324 33.0818 3.0831 32.9627C3.20417 32.6061 3.33722 32.2609 3.49309 31.9183C4.44277 29.8096 4.40412 27.6987 4.36854 25.4364C4.35825 24.7742 4.35488 24.1119 4.35205 23.4496C4.35173 23.3758 4.35173 23.3758 4.35141 23.3005C4.35098 23.2023 4.35057 23.1041 4.35017 23.0059C4.34866 22.6786 4.34462 22.3515 4.33973 22.0242C4.31316 19.8372 4.8642 18.5595 6.26019 16.883C6.47536 16.6246 6.68639 16.3631 6.89584 16.1C7.08809 15.8601 7.28281 15.6223 7.47728 15.3842C7.75988 15.0381 8.03935 14.6898 8.31439 14.3377C8.64266 13.9176 8.98081 13.5061 9.32095 13.0956C9.57381 12.7903 9.82393 12.4832 10.0709 12.1732C10.3066 11.8789 10.5453 11.587 10.7838 11.2949C10.9997 11.0301 11.2136 10.7639 11.4255 10.4959C12.0645 9.69866 12.0645 9.69866 12.6755 9.69979Z" fill="currentColor"></path>
<path d="M137.549 16.4908C138.844 17.7189 139.477 19.6081 139.548 21.3619C139.557 21.7389 139.555 22.1158 139.553 22.4929C139.553 22.6363 139.553 22.7798 139.553 22.9232C139.553 23.3085 139.552 23.6938 139.55 24.0792C139.549 24.4834 139.549 24.8876 139.548 25.2918C139.548 26.0554 139.546 26.819 139.544 27.5826C139.542 28.4527 139.541 29.3228 139.54 30.1929C139.537 31.981 139.534 33.7692 139.529 35.5574C138.185 35.5574 136.841 35.5574 135.456 35.5574C135.454 34.9753 135.454 34.9753 135.453 34.3815C135.449 33.0968 135.445 31.812 135.44 30.5273C135.436 29.7487 135.434 28.97 135.432 28.1914C135.43 27.5123 135.428 26.8331 135.425 26.154C135.423 25.7948 135.422 25.4357 135.421 25.0765C135.421 24.7375 135.42 24.3985 135.418 24.0594C135.417 23.9359 135.417 23.8125 135.417 23.689C135.418 22.1988 135.265 20.5934 134.227 19.4308C133.386 18.6335 132.23 18.3999 131.106 18.3988C129.803 18.4717 128.731 18.9744 127.832 19.9145C126.859 21.0491 126.408 22.6122 126.401 24.0885C126.4 24.1379 126.4 24.1874 126.4 24.2383C126.399 24.4023 126.398 24.5663 126.397 24.7303C126.397 24.8485 126.396 24.9667 126.395 25.0849C126.394 25.4047 126.392 25.7244 126.391 26.0441C126.389 26.3787 126.387 26.7133 126.385 27.0479C126.382 27.6809 126.379 28.314 126.376 28.947C126.372 29.668 126.369 30.3889 126.365 31.1098C126.357 32.5924 126.35 34.0749 126.343 35.5574C124.976 35.5574 123.609 35.5574 122.2 35.5574C122.2 28.9172 122.2 22.277 122.2 15.4356C123.476 15.4356 124.752 15.4356 126.066 15.4356C126.092 16.6157 126.092 16.6157 126.099 16.9859C126.102 17.0837 126.104 17.1816 126.107 17.2795C126.108 17.3544 126.108 17.3544 126.109 17.4309C126.118 17.731 126.154 17.9846 126.274 18.2609C126.427 18.381 126.427 18.381 126.619 18.3988C126.946 18.2488 127.135 18.0116 127.357 17.7398C128.597 16.2653 130.106 15.2481 132.059 15.0336C134.065 14.8828 135.975 15.1521 137.549 16.4908Z" fill="currentColor"></path>
<path d="M31.8962 1.10244C32.6696 1.84023 33.0012 3.05443 33.2079 4.06558C33.2193 4.11852 33.2306 4.17146 33.2422 4.22601C33.605 6.00953 33.5915 8.145 33.2079 9.92295C33.1983 9.96903 33.1887 10.0151 33.1788 10.0626C32.9511 11.1049 32.3986 11.8757 31.746 12.6915C31.4735 13.0322 31.2119 13.3805 30.9512 13.7302C30.6285 14.1619 30.3021 14.5898 29.967 15.0121C29.6072 15.4661 29.2563 15.9269 28.9047 16.3874C28.7126 16.6389 28.5202 16.8901 28.3277 17.1413C28.2902 17.1903 28.2526 17.2393 28.2139 17.2898C27.992 17.5795 27.7696 17.8688 27.5467 18.1577C27.2758 18.509 27.0054 18.8608 26.7355 19.2129C26.6988 19.2607 26.6622 19.3085 26.6244 19.3577C26.571 19.4274 26.571 19.4274 26.5165 19.4985C26.4813 19.544 26.4461 19.5894 26.4098 19.6362C26.3364 19.734 26.2656 19.8338 26.1971 19.935C26.1622 19.9855 26.1274 20.036 26.0915 20.088C26.0609 20.1341 26.0304 20.1802 25.9989 20.2276C25.8898 20.3284 25.8898 20.3284 25.7089 20.3477C25.5446 20.3284 25.5446 20.3284 25.4755 20.2595C25.4686 20.1125 25.4666 19.9652 25.4665 19.818C25.4662 19.748 25.4662 19.748 25.466 19.6766C25.4656 19.5191 25.4657 19.3616 25.4657 19.204C25.4655 19.0915 25.4653 18.979 25.465 18.8665C25.4644 18.6236 25.4641 18.3807 25.4639 18.1378C25.4635 17.7535 25.4623 17.3693 25.461 16.985C25.4606 16.8535 25.4601 16.722 25.4597 16.5905C25.4594 16.4918 25.4594 16.4918 25.459 16.391C25.4561 15.496 25.4539 14.601 25.453 13.706C25.4524 13.1029 25.4509 12.4997 25.4482 11.8966C25.4469 11.5773 25.446 11.2581 25.4463 10.9389C25.4467 10.6383 25.4457 10.3377 25.4438 10.037C25.4433 9.92693 25.4433 9.81681 25.4438 9.7067C25.4517 8.91162 25.4517 8.91162 25.1303 8.2002C24.7848 7.92572 24.5292 7.8472 24.0945 7.84567C24.0078 7.84519 23.9212 7.84472 23.8319 7.84423C23.7357 7.84404 23.6395 7.84386 23.5433 7.84368C23.4422 7.84325 23.341 7.84278 23.2399 7.84229C23.022 7.84128 22.8041 7.84047 22.5862 7.83981C22.2419 7.83874 21.8976 7.83709 21.5533 7.83534C20.5743 7.83043 19.5952 7.8263 18.6161 7.82279C18.0755 7.82084 17.5348 7.8184 16.9941 7.81544C16.6516 7.81359 16.3091 7.81236 15.9666 7.81158C15.7539 7.81095 15.5412 7.80975 15.3284 7.80839C15.2295 7.80788 15.1306 7.8076 15.0317 7.80757C14.8971 7.80749 14.7624 7.8065 14.6278 7.80546C14.5523 7.80517 14.4769 7.80488 14.3991 7.80458C14.2221 7.78673 14.2221 7.78673 14.084 7.64891C14.104 7.38088 14.1768 7.24704 14.3693 7.06398C14.4133 7.0213 14.4573 6.97862 14.5027 6.93464C14.5496 6.89036 14.5966 6.84608 14.6449 6.80046C14.7409 6.70754 14.8367 6.61449 14.9324 6.52132C14.9756 6.47989 15.0189 6.43847 15.0634 6.39579C15.23 6.22935 15.3819 6.05212 15.5341 5.87259C16.0275 5.3242 16.5605 4.79811 17.125 4.32292C17.304 4.16419 17.4714 3.99446 17.6395 3.82439C17.8922 3.56914 18.1497 3.3246 18.4232 3.09168C18.5738 2.96107 18.7203 2.82655 18.8665 2.69108C21.7845 -0.0104993 28.3907 -1.53567 31.8962 1.10244Z" fill="currentColor"></path>
<path d="M23.3226 11.7962C23.3724 11.8148 23.4221 11.8333 23.4734 11.8524C23.5505 12.0835 23.5515 12.2575 23.5521 12.5011C23.5523 12.5461 23.5525 12.5911 23.5527 12.6376C23.5533 12.7888 23.5534 12.94 23.5535 13.0912C23.5538 13.1996 23.5542 13.3079 23.5546 13.4162C23.5555 13.7108 23.5559 14.0054 23.5562 14.3C23.5564 14.4842 23.5567 14.6683 23.557 14.8525C23.558 15.4289 23.5586 16.0054 23.5589 16.5818C23.5592 17.2467 23.5604 17.9116 23.5624 18.5764C23.5639 19.0906 23.5646 19.6048 23.5647 20.119C23.5648 20.4259 23.5652 20.7329 23.5664 21.0398C23.5675 21.3288 23.5677 21.6179 23.5671 21.9069C23.567 22.0126 23.5673 22.1184 23.568 22.2241C23.5726 22.9717 23.4996 23.5456 23.0996 24.1887C23.0533 24.2638 23.0071 24.3389 22.9595 24.4163C22.9093 24.4965 22.8591 24.5767 22.8089 24.6568C22.7562 24.7419 22.7037 24.827 22.6512 24.9121C22.5424 25.0886 22.4332 25.2649 22.3239 25.4411C22.0959 25.809 21.8715 26.1791 21.647 26.5491C21.5503 26.7084 21.4535 26.8676 21.3566 27.0267C21.129 27.4006 20.9019 27.7748 20.6751 28.1492C18.7445 31.3354 18.7445 31.3354 16.7679 31.9312C16.6513 31.9672 16.5347 32.0032 16.4181 32.0394C16.0552 32.1515 15.6918 32.2619 15.3284 32.3722C15.0129 32.468 14.6976 32.5642 14.3823 32.6604C13.3738 32.9682 12.3652 33.2758 11.3562 33.5819C11.2952 33.6004 11.2342 33.6189 11.1714 33.638C10.8827 33.7256 10.594 33.8131 10.3052 33.9006C10.2526 33.9165 10.1999 33.9325 10.1456 33.949C10.0428 33.9802 9.93997 34.0112 9.8371 34.042C9.58268 34.1188 9.32997 34.1986 9.07844 34.2843C9.02834 34.3011 8.97825 34.3178 8.92663 34.335C8.83218 34.3667 8.73802 34.3992 8.64425 34.4328C8.42534 34.5055 8.30518 34.53 8.08105 34.4638C8.01096 34.4253 8.01096 34.4253 7.93945 34.3861C7.97757 34.0804 8.0541 33.8507 8.19754 33.5786C8.23666 33.5037 8.27577 33.4289 8.31607 33.3519C8.35839 33.2725 8.4007 33.1931 8.44431 33.1113C8.48843 33.0276 8.53253 32.9439 8.57659 32.8601C8.97716 32.1009 9.387 31.3467 9.80352 30.596C9.8405 30.5291 9.87748 30.4622 9.91558 30.3933C10.5063 29.3256 11.1195 28.2727 11.7469 27.2262C11.8633 27.0318 11.9791 26.8371 12.0948 26.6423C12.9029 25.2838 13.7681 23.9648 14.6449 22.6498C14.686 22.5882 14.727 22.5265 14.7693 22.463C15.4659 21.4177 16.1779 20.3848 16.9275 19.3766C16.9681 19.3219 17.0087 19.2671 17.0505 19.2107C17.1661 19.0548 17.2819 18.8991 17.3979 18.7435C17.4434 18.6823 17.4434 18.6823 17.4899 18.6199C18.2832 17.5555 19.0957 16.5035 19.9407 15.4794C20.0402 15.3588 20.1393 15.2378 20.2379 15.1165C20.628 14.637 21.0291 14.1676 21.4331 13.6997C21.5393 13.5763 21.645 13.4524 21.7506 13.3284C21.9214 13.1277 22.0935 12.9281 22.2663 12.7291C22.3357 12.6487 22.4047 12.5679 22.4733 12.4867C22.574 12.3677 22.6762 12.2499 22.7786 12.1324C22.8672 12.0291 22.8672 12.0291 22.9575 11.9238C23.1282 11.7835 23.1282 11.7835 23.3226 11.7962Z" fill="currentColor"></path>
<path d="M113.846 15.4355C115.19 15.4355 116.534 15.4355 117.919 15.4355C117.919 22.0757 117.919 28.7159 117.919 35.5573C116.575 35.5573 115.231 35.5573 113.846 35.5573C113.846 28.9171 113.846 22.277 113.846 15.4355Z" fill="currentColor"></path>
<path d="M113.639 6.75293C115.097 6.75293 116.555 6.75293 118.057 6.75293C118.057 8.29928 118.057 9.84562 118.057 11.4388C116.599 11.4388 115.141 11.4388 113.639 11.4388C113.639 9.89248 113.639 8.34613 113.639 6.75293Z" fill="currentColor"></path>
</g>
<defs>
<clipPath id="clip0_680_9860">
<rect width="225" height="43" fill="currentColor"></rect>
</clipPath>
</defs>
</svg>