<svg width="96" height="96" viewBox="0 0 96 96" fill="none" xmlns="http://www.w3.org/2000/svg" class="animate-pulse"><path d="M64.9874 61.6704C65.6954 72.1848 56.557 78.017 49.4998 78C46.1214 77.9926 42.4284 76.6302 39.3552 74.4464L34.47 70.9808C30.6912 68.3436 29.6088 67.8904 28.183 67.8854C24.7308 67.8756 22.4944 70.3494 22.7114 73.5788C22.7876 74.7048 22.8282 75.6066 23.82 76.9618L13.332 76.9348C12.5548 75.4312 12.1352 73.6276 12.0279 72.0506C11.5272 64.617 17.8143 57.649 27.1196 57.671C30.9486 57.6808 34.9302 58.892 38.0892 61.2268L45.0366 66.35C46.3742 67.2542 47.4542 67.7076 48.9562 67.7124C53.3098 67.7222 54.8474 63.8226 54.6758 61.2684C54.5638 59.6158 53.7126 58.1122 52.2916 57.0568L38.5398 46.735C34.6704 43.8714 32.3314 39.2114 32.0024 34.3296C31.2968 23.8152 40.4328 17.98298 47.49 18.00004C50.8684 18.00734 54.5614 19.36976 57.6346 21.5536L62.5198 25.0192C66.2986 27.6564 67.381 28.1096 68.8068 28.1146C72.259 28.1244 74.0948 25.648 73.878 22.4188C73.8016 21.2928 73.761 20.391 72.7692 19.0358L83.2572 19.06268C84.0344 20.5664 85.5674 29.7718 79.2208 35.0168C70.6616 42.0898 62.0548 37.1056 58.8982 34.7682L51.9508 29.6452C50.6132 28.741 49.5332 28.2876 48.0312 28.2828C43.6776 28.273 42.1398 32.1726 42.3068 34.6512C42.4188 36.3036 43.2748 37.883 44.6218 38.936L58.4476 49.2576C62.3124 52.0458 64.6608 56.857 64.985 61.6632L64.9874 61.6704Z" fill="currentColor"></path></svg>