<svg width="127" height="72" viewBox="0 0 127 72" fill="none" xmlns="http://www.w3.org/2000/svg">
<g clip-path="url(#clip0_6942_2411)">
<path d="M35.1965 66.3106V59.9328C35.1965 59.766 35.0861 59.6555 34.9216 59.6555H32.826V57.1599H34.9216C35.0861 57.1599 35.1965 57.0495 35.1965 56.8826V52.8901H38.1731V56.8826C38.1731 57.0495 38.2835 57.1599 38.4479 57.1599H41.3705V59.6555H38.4479C38.2835 59.6555 38.1731 59.766 38.1731 59.9328V65.5891C38.1731 68.2516 39.1105 68.4725 40.3227 68.4725C40.7644 68.4725 41.4245 68.416 41.8122 68.362V70.9681C41.3166 71.0245 40.4896 71.135 39.5522 71.135C38.3939 71.081 35.1965 71.081 35.1965 66.3106ZM116.127 67.8639L118.554 66.5879C119.106 67.8639 120.151 68.6958 121.366 68.6958C122.303 68.6958 123.351 68.3081 123.351 67.1424C123.351 66.367 122.855 65.9229 121.697 65.5351L120.043 64.9805C117.727 64.2591 116.571 62.9291 116.571 61.042C116.571 58.6568 118.556 56.8826 121.258 56.8826C123.407 56.8826 125.228 58.0482 126.109 59.8788L123.685 61.2089C123.133 60.0433 122.252 59.3782 121.204 59.3782C120.156 59.3782 119.439 59.9328 119.439 60.7647C119.439 61.4862 119.992 62.0407 121.093 62.372L122.747 62.9266C125.174 63.7021 126.33 65.0345 126.33 66.8652C126.33 69.7485 123.849 71.2478 121.368 71.2478C118.882 71.1914 116.897 69.9154 116.127 67.8639ZM106.974 65.3683L106.863 65.5351V70.8601H103.83V51.1699H106.863V61.9303L107.028 62.1512L107.302 62.0947L112.208 57.1035H115.901L110.169 62.9266V63.2603L116.399 70.8601H112.706L107.909 64.8701L107.744 64.7597L107.58 64.8161L106.974 65.3683ZM102.343 58.9905L100.414 60.8211C99.3125 59.9893 98.2082 59.6015 96.996 59.6015C94.4611 59.6015 92.5863 61.4862 92.5863 64.0382C92.5863 66.5903 94.4611 68.4749 96.996 68.4749C98.0978 68.4749 99.256 68.0872 100.468 67.2553L102.176 69.0859C99.6953 70.9166 98.3726 71.2478 96.6622 71.2478C94.623 71.2478 92.8022 70.5264 91.4795 69.1964C90.2109 67.9203 89.4943 66.0357 89.4943 64.0382C89.4943 59.8788 92.5274 56.8286 96.7162 56.8286C98.0978 56.8262 100.139 57.0495 102.343 58.9905ZM88.1201 53.0545C88.1201 54.0532 87.2932 54.8851 86.3018 54.8851C85.3104 54.8851 84.4834 54.0532 84.4834 53.0545C84.4834 52.0558 85.3104 51.2239 86.3018 51.2239C87.2932 51.2239 88.1201 52.0582 88.1201 53.0545ZM87.8453 70.8601H84.8122V57.1599H87.8453V70.8601ZM78.1965 64.8701V70.9166H75.1634V57.2163H78.1401V58.8801L78.3045 59.1574L78.5793 59.047C79.3498 57.7709 80.7854 56.939 82.3289 56.939C82.5497 56.939 82.7142 56.939 82.8246 56.9955V60.1021C82.6602 60.0457 82.3829 60.0457 82.108 60.0457C79.686 59.9893 78.1965 61.8739 78.1965 64.8701ZM61.9344 64.0382C61.9344 61.5426 63.8092 59.6015 66.2336 59.6015C68.6606 59.6015 70.5329 61.5426 70.5329 64.0382C70.5329 66.5339 68.6581 68.4749 66.2336 68.4749C63.8092 68.4749 61.9344 66.5339 61.9344 64.0382ZM62.2092 69.2504H62.3196L62.5405 69.3608C63.5883 70.5804 65.1318 71.2454 66.8962 71.2454C70.6458 71.2454 73.512 68.0847 73.512 64.0358C73.512 62.0383 72.8494 60.2641 71.5832 58.8776C70.3709 57.5476 68.6606 56.8262 66.8422 56.8262C65.1343 56.8262 63.5343 57.5476 62.4865 58.8237L62.2117 58.8801L62.0473 58.6592V51.2263H59.0142V70.9166H62.0473V69.5301C62.0448 69.3608 62.0988 69.3068 62.2092 69.2504ZM49.6402 68.4749C47.2698 68.4749 45.341 66.5339 45.341 64.0382C45.341 61.5426 47.2158 59.6015 49.6402 59.6015C52.0672 59.6015 53.9395 61.5426 53.9395 64.0382C53.9395 66.5339 52.0107 68.4749 49.6402 68.4749ZM56.7517 57.1599H53.7751V58.5464L53.6107 58.7672L53.3358 58.7108C52.3445 57.4912 50.8009 56.8262 48.9801 56.8262C45.2305 56.8262 42.3644 59.9868 42.3644 64.0358C42.3644 68.0847 45.287 71.2454 48.9801 71.2454C50.6881 71.2454 52.288 70.5239 53.3358 69.2479L53.6107 69.1915L53.7751 69.4123V70.9092H56.7517V57.1599ZM24.1146 68.4749C21.7441 68.4749 19.8153 66.5339 19.8153 64.0382C19.8153 61.5426 21.6901 59.6015 24.1146 59.6015C26.4851 59.6015 28.4138 61.5426 28.4138 64.0382C28.4138 66.5339 26.4851 68.4749 24.1146 68.4749ZM31.226 57.1599H28.2494V58.5464L28.085 58.7672L27.8102 58.7108C26.8188 57.4912 25.2753 56.8262 23.4545 56.8262C19.7049 56.8262 16.8387 59.9868 16.8387 64.0358C16.8387 68.0847 19.7613 71.2454 23.4545 71.2454C25.1624 71.2454 26.7624 70.5239 27.8102 69.2479L28.085 69.1915L28.2494 69.4123V70.9092H31.226V57.1599ZM8.01688 68.4749C5.58995 68.4749 3.71761 66.5339 3.71761 64.0382C3.71761 61.5426 5.59241 59.6015 8.01688 59.6015C10.3874 59.6015 12.3161 61.5426 12.3161 64.0382C12.3161 66.5339 10.3874 68.4749 8.01688 68.4749ZM15.1283 70.8601V51.2263H12.0953V58.6028L11.9309 58.8237L11.656 58.7672C10.6082 57.5476 9.0647 56.8826 7.30033 56.8826C3.55075 56.8826 0.68457 60.0433 0.68457 64.0922C0.68457 66.0897 1.34713 67.8639 2.61335 69.2504C3.82559 70.5804 5.53597 71.3018 7.35432 71.3018C9.06225 71.3018 10.6622 70.5804 11.71 69.3043L11.9849 69.2479L12.1493 69.4688V70.9117H15.1259V70.8601H15.1283Z" fill="currentColor"></path>
<path d="M78.7462 17.2224L62.3172 26.5399L44.8428 16.6114L44.0159 17.0555V24.2651L62.3172 34.6918L78.7462 25.3743V29.2024L62.3172 38.5199L44.8428 28.5914L44.0159 29.0355V30.2551L62.3172 40.6818L80.6774 30.2551V23.0455L79.8504 22.6014L62.3172 32.5299L45.9446 23.2124V19.4407L62.3172 28.7018L80.6774 18.2751V11.1759L79.74 10.6778L62.3172 20.5499L46.828 11.7305L62.3172 2.96757L75.1095 10.1772L76.2653 9.56861V8.68029L62.3172 0.805664L44.0159 11.1759V12.2851L62.3172 22.7118L78.7462 13.3943V17.2224Z" fill="currentColor"></path>
</g>
<defs>
<clipPath id="clip0_6942_2411">
<rect width="125.646" height="70.4962" fill="currentColor" transform="translate(0.68457 0.805664)"></rect>
</clipPath>
</defs>
</svg>