<svg width="600" height="223" viewBox="0 0 600 223" fill="none" xmlns="http://www.w3.org/2000/svg">
<path d="M540.784 181.427C532.553 181.427 525.161 179.831 518.61 176.64C512.226 173.448 507.103 169.164 503.239 163.788C499.543 158.245 497.695 151.861 497.695 144.638C497.695 135.23 500.719 127.587 506.767 121.707C512.814 115.828 521.466 111.796 532.721 109.612L562.203 103.565C568.082 102.389 572.114 100.541 574.298 98.021C576.482 95.501 577.574 91.806 577.574 86.934L580.597 116.416L538.264 125.487C532.553 126.663 528.101 128.763 524.909 131.787C521.886 134.811 520.374 139.01 520.374 144.386C520.374 149.929 522.474 154.381 526.673 157.741C531.041 161.101 536.92 162.781 544.312 162.781C550.36 162.781 555.903 161.437 560.943 158.749C566.15 156.061 570.182 152.365 573.038 147.662C576.062 142.79 577.574 137.246 577.574 131.031V86.934C577.574 80.886 575.39 76.183 571.022 72.823C566.822 69.295 561.027 67.531 553.635 67.531C544.228 67.531 537.004 69.883 531.965 74.587C526.925 79.29 523.985 85.926 523.145 94.493L500.971 91.47C501.811 82.566 504.499 74.923 509.034 68.539C513.57 61.988 519.618 56.948 527.177 53.42C534.737 49.893 543.724 48.129 554.139 48.129C568.922 48.129 580.261 51.908 588.157 59.468C596.052 67.027 600 76.771 600 88.698V177.647H578.078V161.269C575.894 166.812 571.442 171.6 564.723 175.632C558.171 179.495 550.192 181.427 540.784 181.427Z" fill="currentColor"></path>
<path d="M319.028 177.647V51.908H340.951V66.019C342.63 61.148 346.326 56.948 352.038 53.42C357.749 49.893 364.385 48.129 371.944 48.129C379.336 48.129 386.139 49.725 392.355 52.916C398.571 56.108 402.602 60.896 404.45 67.279C406.634 61.4 410.666 56.78 416.545 53.42C422.593 49.893 429.312 48.129 436.704 48.129C449.471 48.129 459.214 51.824 465.934 59.216C472.653 66.607 476.013 77.359 476.013 91.47V177.647H453.587V94.493C453.587 86.094 451.739 79.794 448.043 75.595C444.515 71.227 439.308 69.043 432.42 69.043C424.861 69.043 418.981 71.731 414.781 77.107C410.75 82.314 408.734 89.958 408.734 100.037V177.647H386.307V94.493C386.307 86.094 384.46 79.794 380.764 75.595C377.236 71.227 372.028 69.043 365.141 69.043C357.581 69.043 351.702 71.731 347.502 77.107C343.47 82.314 341.455 89.958 341.455 100.037V177.647H319.028Z" fill="currentColor"></path>
<path d="M233.277 223.004C217.654 223.004 204.971 219.393 195.227 212.169C185.484 204.946 179.268 194.866 176.581 181.931L198.503 177.144C200.351 185.375 204.299 191.758 210.346 196.294C216.394 200.998 224.037 203.35 233.277 203.35C244.364 203.35 252.679 200.494 258.223 194.782C263.934 189.239 266.79 180.923 266.79 169.836V149.929C264.27 156.145 259.567 161.185 252.679 165.048C245.96 168.912 238.4 170.844 230.001 170.844C218.914 170.844 209.17 168.324 200.771 163.284C192.371 158.077 185.82 150.853 181.116 141.614C176.413 132.375 174.061 121.707 174.061 109.612C174.061 97.349 176.413 86.598 181.116 77.359C185.82 68.119 192.287 60.98 200.519 55.94C208.918 50.732 218.746 48.129 230.001 48.129C238.4 48.129 246.044 50.061 252.931 53.924C259.987 57.62 264.774 62.24 267.294 67.783V51.908H289.217V169.836C289.217 180.923 287.033 190.415 282.665 198.31C278.297 206.373 271.914 212.505 263.514 216.705C255.283 220.904 245.204 223.004 233.277 223.004ZM232.773 150.937C243.524 150.937 252.091 147.158 258.475 139.598C265.026 132.039 268.302 122.043 268.302 109.612C268.302 97.013 265.026 86.934 258.475 79.374C251.923 71.815 243.356 68.035 232.773 68.035C222.021 68.035 213.37 71.815 206.818 79.374C200.435 86.934 197.243 97.013 197.243 109.612C197.243 122.043 200.519 132.039 207.07 139.598C213.622 147.158 222.189 150.937 232.773 150.937Z" fill="currentColor"></path>
<path d="M128.803 177.647V51.908H151.229V177.647H128.803ZM128.551 35.781V0H151.481V35.781H128.551Z" fill="currentColor"></path>
<path d="M0 177.647V0H23.686V177.647H0ZM4.78799 102.557V81.138H101.297V102.557H4.78799ZM4.78799 21.67V0H110.62V21.67H4.78799Z" fill="currentColor"></path>
</svg>