<svg width="286" height="34" viewBox="0 0 286 34" fill="none" xmlns="http://www.w3.org/2000/svg">
<g clip-path="url(#clip0_1859_338)">
<path d="M57.8105 8.06933C55.1227 3.08267 49.9293 0 44.2803 0H1.45779C0.637783 0 0 0.68 0 1.496C0 1.85867 0.136668 2.26667 0.410003 2.53867L9.74897 11.8773C10.569 12.6933 11.7079 13.1467 12.8468 13.1467H43.0503C45.1915 13.1467 46.9681 14.824 46.9681 17C46.9681 19.1307 45.2826 20.8987 43.0959 20.8987H22.3224C21.5024 20.8987 20.8646 21.5787 20.8646 22.3947C20.8646 22.8027 21.0013 23.1653 21.2746 23.4373L30.6136 32.776C31.4336 33.5467 32.5725 34 33.7114 34H43.1414C55.396 34 64.6438 20.9893 57.8105 8.06933Z" fill="currentColor"></path>
<path d="M80.5429 10.6076V24.933H84.2329C88.1507 24.8876 91.2941 21.669 91.2485 17.7703C91.3396 13.917 88.3329 10.7436 84.4607 10.6076C84.3696 10.6076 84.324 10.6076 84.2329 10.6076H80.5429ZM84.2329 6.11963C91.1119 6.11963 96.3052 11.2876 96.3052 17.7703C96.3052 24.253 91.1119 29.421 84.2329 29.421H76.124C75.8051 29.421 75.5317 29.149 75.5317 28.8316V6.70896C75.5317 6.39163 75.8051 6.11963 76.124 6.11963H84.2329Z" fill="currentColor"></path>
<path d="M114.027 25.4317C118.263 25.4317 121.725 22.0317 121.771 17.7704C121.817 13.509 118.354 10.109 114.072 10.0637C109.835 10.0637 106.373 13.4637 106.328 17.725C106.328 21.9863 109.744 25.4317 114.027 25.4317ZM114.027 5.57568C121.27 5.57568 126.782 11.1064 126.782 17.7704C126.782 24.4344 121.224 29.9197 114.027 29.9197C106.829 29.9197 101.316 24.4343 101.316 17.725C101.316 11.0157 106.829 5.57568 114.027 5.57568Z" fill="currentColor"></path>
<path d="M144.321 25.4317C148.558 25.4317 152.02 21.9863 152.02 17.725C152.02 13.4637 148.558 10.0637 144.276 10.0637C140.039 10.0637 136.577 13.509 136.577 17.725C136.622 21.9863 140.039 25.4317 144.321 25.4317ZM144.321 5.57568C151.519 5.57568 157.031 11.061 157.031 17.7704C157.031 24.4797 151.519 29.9197 144.321 29.9197C137.123 29.9197 131.565 24.4343 131.565 17.725C131.565 11.0157 137.078 5.57568 144.321 5.57568Z" fill="currentColor"></path>
<path d="M173.933 10.6076H168.739V16.773H173.933C175.618 16.8636 177.03 15.549 177.122 13.8716C177.122 13.8263 177.122 13.781 177.122 13.7356C177.167 12.0583 175.846 10.6076 174.16 10.5623C174.069 10.6076 173.978 10.6076 173.933 10.6076ZM163.683 6.70896C163.683 6.39163 163.956 6.11963 164.275 6.11963H174.069C178.716 6.11963 182.087 9.51963 182.087 13.781C182.133 16.6823 180.493 19.3116 177.896 20.6263L182.406 28.5596C182.588 28.8316 182.497 29.1943 182.269 29.3756C182.178 29.4663 182.042 29.4663 181.905 29.4663H177.942C177.714 29.4663 177.532 29.3303 177.395 29.149L173.067 21.3063H168.694V28.8316C168.694 29.149 168.42 29.421 168.102 29.421H164.275C163.956 29.421 163.683 29.149 163.683 28.8316V6.70896Z" fill="currentColor"></path>
<path d="M195.207 10.6984V25.0238H198.897C202.815 24.9784 205.958 21.7598 205.913 17.8611C206.049 14.0078 202.997 10.7891 199.125 10.6984C199.034 10.6984 198.943 10.6984 198.851 10.6984H195.207ZM198.897 6.21045C205.776 6.21045 210.969 11.3784 210.969 17.8611C210.969 24.3438 205.776 29.5118 198.897 29.5118H190.788C190.469 29.5118 190.196 29.2398 190.196 28.9224V6.79978C190.196 6.48245 190.469 6.21045 190.788 6.21045H198.897Z" fill="currentColor"></path>
<path d="M226.276 11.9224L223.406 19.5837H229.101L226.276 11.9224ZM221.766 23.8904L219.898 29.013C219.807 29.2397 219.579 29.421 219.306 29.421H215.252C214.933 29.4664 214.659 29.2397 214.614 28.877C214.614 28.7864 214.614 28.6504 214.659 28.5597L223.406 6.43704C223.497 6.21038 223.725 6.02904 223.998 6.07438H228.508C228.782 6.07438 229.009 6.21038 229.101 6.43704L237.847 28.5597C237.984 28.8317 237.847 29.1944 237.574 29.3304C237.483 29.3757 237.392 29.3757 237.255 29.3757H233.201C232.927 29.3757 232.699 29.2397 232.608 28.9677L230.741 23.845H221.766V23.8904Z" fill="currentColor"></path>
<path d="M242.54 12.4211C242.54 8.7491 245.729 5.57577 250.74 5.57577C253.428 5.53043 256.07 6.48243 258.029 8.29577C258.257 8.52243 258.302 8.8851 258.074 9.11177C258.074 9.11177 258.074 9.11177 258.029 9.1571L255.797 11.3784C255.569 11.6051 255.204 11.6051 254.977 11.3784C253.929 10.4264 252.517 9.88243 251.104 9.8371C249.1 9.8371 247.597 11.0158 247.597 12.3304C247.597 16.6824 259.487 14.1438 259.487 22.4851C259.487 26.7011 256.252 29.9198 250.603 29.9198C247.46 29.9651 244.408 28.7411 242.13 26.5198C241.902 26.2931 241.857 25.9304 242.084 25.7038C242.084 25.7038 242.084 25.7038 242.13 25.6584L244.317 23.4824C244.544 23.2558 244.909 23.2558 245.137 23.4824C246.503 24.7971 248.371 25.5224 250.239 25.5678C252.744 25.5678 254.384 24.2531 254.384 22.5758C254.43 18.2691 242.54 20.7624 242.54 12.4211Z" fill="currentColor"></path>
<path d="M281.035 6.66355V15.4129H270.967V6.66355C270.967 6.34622 270.693 6.07422 270.374 6.07422H266.548C266.229 6.07422 265.956 6.34622 265.956 6.66355V28.7862C265.956 29.1035 266.229 29.3756 266.548 29.3756H270.374C270.693 29.3756 270.967 29.1035 270.967 28.7862V19.9009H281.035V28.7862C281.035 29.1035 281.308 29.3756 281.627 29.3756H285.453C285.772 29.3756 286.046 29.1035 286.046 28.7862V6.66355C286.046 6.34622 285.772 6.07422 285.453 6.07422H281.627C281.262 6.07422 281.035 6.34622 281.035 6.66355Z" fill="currentColor"></path>
</g>
<defs>
<clipPath id="clip0_1859_338">
<rect width="286" height="34" fill="currentColor"></rect>
</clipPath>
</defs>
</svg>