<svg width="126" height="26" viewBox="0 0 126 26" fill="none" xmlns="http://www.w3.org/2000/svg">
<path d="M64.4616 15.3606C64.4616 21.4527 69.5403 25.9089 75.9924 25.9089C82.444 25.9089 87.5284 21.4527 87.5284 15.3606V1.36418H81.281V14.6391C81.281 17.9276 78.9882 20.1418 75.9755 20.1418C72.9628 20.1418 70.67 17.9386 70.67 14.6391V1.36418H64.423L64.4616 15.3606ZM104.22 6.96597H111.674V25.4468H117.921V6.96597H125.376V1.35314H104.219L104.22 6.96597ZM100.183 1.35314H93.9355V25.4462H100.183V1.35314ZM39.2236 6.96597H46.678V25.4468H52.9251V6.96597H60.3739V1.35314H39.2236V6.96597ZM6.4488 1.35314H0.20166V25.4462H6.4488V1.35314ZM35.9338 11.4168C35.9338 5.32454 30.8552 0.873901 24.3977 0.873901C17.9402 0.873901 12.8617 5.32454 12.8617 11.4168V25.4462H19.1088V12.1712C19.1088 8.88278 21.4017 6.6685 24.4145 6.6685C27.4272 6.6685 29.7201 8.87174 29.7201 12.1712V25.4462H35.9673L35.9285 11.4168H35.9338Z" fill="currentColor"></path>
</svg>