<svg width="65" height="26" viewBox="0 0 65 26" fill="none" xmlns="http://www.w3.org/2000/svg">
<path d="M64.5415 13.0181C64.5415 12.8502 64.5415 12.6765 64.5415 12.4966C64.5415 12.3049 64.5235 12.119 64.4873 11.9393C64.4632 11.7594 64.4451 11.5796 64.4331 11.3998C64.421 11.22 64.397 11.0522 64.3608 10.8963H54.2925L51.2376 15.6612H58.9742C58.7451 16.4644 58.4138 17.1956 57.98 17.8548C57.5582 18.5021 57.0521 19.0655 56.4616 19.5449V19.5629C55.847 20.0424 55.1661 20.42 54.4191 20.6958C53.684 20.9595 52.9007 21.0914 52.0692 21.0914C52.0451 21.0914 52.021 21.0914 51.9968 21.0914C51.9848 21.0914 51.9787 21.0914 51.9787 21.0914C50.8942 21.0914 49.8699 20.8756 48.9058 20.444C47.9418 20.0125 47.1164 19.4371 46.4294 18.7179C45.7185 17.9627 45.1582 17.0996 44.7484 16.1286C44.3387 15.1577 44.1338 14.1209 44.1338 13.0181C44.1338 13.0061 44.1338 13.0001 44.1338 13.0001C44.1338 12.9881 44.1338 12.9701 44.1338 12.9461C44.1338 11.8553 44.3387 10.8304 44.7484 9.87144C45.1582 8.9005 45.7245 8.05541 46.4475 7.33618C47.1585 6.61696 47.9961 6.04159 48.9601 5.61004C49.9241 5.17851 50.9485 4.96275 52.033 4.96275C52.033 4.96275 52.0392 4.96275 52.0511 4.96275C52.0632 4.96275 52.0692 4.96275 52.0692 4.96275C52.0692 4.96275 52.0754 4.96275 52.0872 4.96275C52.1113 4.96275 52.1234 4.96275 52.1234 4.96275C52.5813 4.96275 53.0333 5.00474 53.4791 5.08862C53.937 5.16052 54.3769 5.26842 54.7986 5.41226L54.7082 5.37627C55.1421 5.53211 55.5457 5.71191 55.9193 5.91568C56.2929 6.11947 56.6423 6.34123 56.9678 6.58097V6.56297L58.3235 4.42329L59.6792 2.26561C59.173 1.91799 58.6307 1.60633 58.0523 1.33062C57.486 1.05492 56.8954 0.821178 56.2808 0.629386L56.1905 0.593391C55.588 0.42557 54.9432 0.293709 54.2564 0.197818C53.5694 0.0899275 52.8766 0.0359869 52.1777 0.0359869C52.1535 0.0359869 52.1355 0.0359869 52.1234 0.0359869C52.1234 0.0359869 52.1113 0.0359869 52.0872 0.0359869C52.0752 0.0359869 52.0571 0.0359869 52.033 0.0359869C52.021 0.0359869 52.0029 0.0359869 51.9787 0.0359869C51.0509 0.0359869 50.1471 0.119889 49.2673 0.287719C48.3997 0.455531 47.5562 0.707263 46.7368 1.0429L46.8452 1.00691C46.0498 1.35453 45.3088 1.7561 44.6219 2.21162C43.935 2.66711 43.3084 3.17658 42.7419 3.73996C42.0672 4.4472 41.4947 5.14244 41.0247 5.82572C40.5669 6.53295 40.1873 7.22221 39.8861 7.89348C39.5847 8.56475 39.3377 9.24203 39.1449 9.92528C38.9641 10.5846 38.8014 11.2379 38.6569 11.8852C38.3797 13.1558 38.0905 14.3665 37.7892 15.5172C37.4879 16.668 36.8673 17.7049 35.9274 18.6279C35.5659 18.9995 35.1682 19.3411 34.7343 19.6528C34.3126 19.9524 33.8727 20.2042 33.4148 20.4079L33.3605 20.4439C32.9027 20.6238 32.4206 20.7676 31.9145 20.8755C31.4204 20.9834 30.8963 21.0373 30.3419 21.0373C30.3419 21.0373 30.3299 21.0373 30.3057 21.0373C30.2937 21.0373 30.2876 21.0373 30.2876 21.0373C29.167 21.0373 28.1126 20.8215 27.1244 20.39C26.1362 19.9584 25.2686 19.3711 24.5215 18.6279C23.7984 17.9207 23.22 17.0756 22.7862 16.0927C22.3524 15.0977 22.1355 14.0428 22.1355 12.928C22.1355 11.8492 22.3464 10.8303 22.7681 9.87134C23.1899 8.90039 23.7683 8.05531 24.5034 7.33607C25.2384 6.60487 26.1001 6.02349 27.0882 5.59197C28.0764 5.14844 29.1309 4.92668 30.2516 4.92668C30.7215 4.92668 31.1794 4.96868 31.6254 5.05255C32.0712 5.12445 32.511 5.22635 32.9449 5.35822H32.8725C33.3064 5.49008 33.7041 5.65789 34.0656 5.86168C34.4271 6.05346 34.7765 6.26922 35.1139 6.50897H35.0778L36.4515 4.36928L37.8434 2.19363C37.3493 1.85799 36.813 1.55232 36.2346 1.27662C35.6683 1.00092 35.0718 0.767176 34.4452 0.575375H34.3728C33.7703 0.383584 33.1255 0.239742 32.4387 0.143842C31.7638 0.0479501 31.0709 0 30.36 0C30.3479 0 30.3298 0 30.3057 0C30.2937 0 30.2816 0 30.2696 0C30.2696 0 30.2634 0 30.2515 0C30.2395 0 30.2334 0 30.2334 0C29.1127 0 28.0282 0.137851 26.9797 0.413553C25.9434 0.677266 24.9673 1.04887 24.0515 1.52834L24.1057 1.51035C23.2019 1.96586 22.3704 2.52325 21.6112 3.18253C20.852 3.84182 20.1772 4.56704 19.5867 5.35819L19.5506 5.37619C19.3096 4.65696 18.96 4.00367 18.5021 3.4163C18.0442 2.81695 17.5019 2.31949 16.8753 1.92392H16.8572C16.1945 1.49237 15.4654 1.15674 14.67 0.916999C13.8747 0.665276 13.0432 0.539406 12.1756 0.539406C12.1394 0.539406 12.1093 0.539406 12.0852 0.539406C12.0611 0.539406 12.043 0.539406 12.031 0.539406H0.408203V25.4605H13.2421C13.2662 25.4605 13.2903 25.4605 13.3144 25.4605C13.3385 25.4605 13.3566 25.4605 13.3687 25.4605C14.1399 25.4605 14.875 25.3646 15.5739 25.1729C16.2728 24.993 16.9357 24.7353 17.5623 24.3997L17.508 24.4177C18.0985 24.0939 18.6287 23.7105 19.0987 23.2669C19.5807 22.8114 19.9844 22.3079 20.3097 21.7565L20.3459 21.7025C20.9243 22.3619 21.5691 22.9492 22.28 23.4647C22.9911 23.98 23.7443 24.4296 24.5395 24.8132L24.6299 24.8311C25.4253 25.1907 26.2809 25.4725 27.1968 25.6762C28.1125 25.8921 29.0645 25.9999 30.0527 25.9999C30.0527 25.9999 30.0589 25.9999 30.0708 25.9999C30.0828 25.9999 30.0949 25.9999 30.1069 25.9999C30.1311 25.9999 30.1492 25.9999 30.1611 25.9999C30.1732 25.9999 30.1913 25.9999 30.2154 25.9999C31.3361 25.9999 32.4267 25.8621 33.4871 25.5863C34.5476 25.3226 35.5358 24.939 36.4516 24.4357L36.3974 24.4896C37.3373 23.9981 38.1868 23.4168 38.946 22.7454C39.7052 22.0622 40.3801 21.307 40.9706 20.4799L40.9887 20.4259C41.5671 21.265 42.2298 22.0262 42.9769 22.7095C43.7361 23.3808 44.5556 23.9561 45.4352 24.4357L45.4895 24.4716C46.4054 24.9511 47.3936 25.3227 48.454 25.5864C49.5144 25.8621 50.617 26 51.7618 26C51.7618 26 51.7681 26 51.7799 26C51.792 26 51.8101 26 51.8342 26C51.8462 26 51.8582 26 51.8703 26C51.8824 26 51.8884 26 51.8884 26C52.7681 26 53.6237 25.9101 54.4552 25.7303C55.2867 25.5504 56.082 25.2928 56.8412 24.9571C57.6125 24.6335 58.3355 24.2379 59.0103 23.7704C59.6852 23.2909 60.3058 22.7575 60.8721 22.1701C61.4505 21.5948 61.9627 20.9594 62.4086 20.2642C62.8545 19.5809 63.2341 18.8557 63.5473 18.0885C63.8607 17.3214 64.1017 16.5182 64.2705 15.6791C64.4512 14.852 64.5415 13.989 64.5415 13.0899C64.5415 13.0779 64.5415 13.0659 64.5415 13.0539C64.5415 13.042 64.5415 13.0301 64.5415 13.0181ZM5.81299 10.6626V5.14255H11.9769C11.9889 5.14255 11.995 5.14255 11.995 5.14255C12.3806 5.14255 12.7361 5.21445 13.0614 5.35832C13.3869 5.49018 13.682 5.68196 13.9472 5.9337H13.9291C14.1821 6.18543 14.375 6.47312 14.5076 6.79676C14.6521 7.12042 14.7245 7.46805 14.7245 7.83964C14.7245 7.83964 14.7245 7.84582 14.7245 7.85764C14.7245 7.86964 14.7245 7.87564 14.7245 7.87564C14.7245 7.89963 14.7245 7.91163 14.7245 7.91163C14.7245 7.91163 14.7245 7.92363 14.7245 7.94763C14.7245 8.30724 14.6521 8.65487 14.5076 8.9905C14.375 9.31416 14.1882 9.60184 13.9472 9.85357H13.9291C13.676 10.1053 13.3869 10.3031 13.0614 10.4469C12.7361 10.5908 12.3806 10.6627 11.995 10.6627C11.995 10.6627 11.9888 10.6627 11.9769 10.6627L5.81299 10.6626ZM5.81299 20.8576V15.1937H13.1698C13.1819 15.1937 13.1879 15.1937 13.1879 15.1937C13.5856 15.1937 13.9592 15.2656 14.3086 15.4094C14.6701 15.5533 14.9896 15.7452 15.2666 15.9849C15.5318 16.2365 15.7427 16.5362 15.8993 16.8839C16.056 17.2315 16.1343 17.5971 16.1343 17.9807C16.1343 17.9807 16.1343 17.9868 16.1343 17.9987C16.1343 18.4063 16.056 18.7839 15.8993 19.1315C15.7427 19.4791 15.5257 19.7848 15.2487 20.0484C14.9835 20.3122 14.6701 20.516 14.3086 20.6598C13.9592 20.8036 13.5796 20.8756 13.1698 20.8756H5.81299V20.8576Z" fill="currentColor"></path>
</svg>