<svg xmlns="http://www.w3.org/2000/svg" fill="none" viewBox="0 0 73 55" height="55" width="73">
<path fill="currentColor" d="M9.09987 46.9165L6.56122 54.1174H5.88022L3.17837 46.9165L2.49736 52.4673C2.47722 52.57 2.47722 52.7352 2.47722 52.7977C2.47722 53.4586 2.76533 53.6016 3.75662 53.6439V54.1194H0.621582V53.6439C1.38519 53.6036 1.63301 53.4586 1.73577 52.8602L2.58199 46.175C2.68474 45.4537 2.31402 45.2261 1.44765 45.1838V44.7304H4.45978C4.47993 45.0186 4.56254 45.2462 4.64514 45.5565L6.8312 51.3752L8.85407 45.5162C8.97697 45.2281 9.03943 45.0004 9.05958 44.7123H12.0314V45.1656C11.165 45.2059 10.8346 45.4336 10.9172 46.1569L11.7433 52.842C11.8058 53.4807 12.0939 53.6056 12.8575 53.6258V54.1013H8.52566V53.6258C9.45448 53.5855 9.78491 53.4404 9.78491 52.7796C9.78491 52.7171 9.78491 52.5741 9.76476 52.4491L9.09987 46.9165Z"></path>
<path fill="currentColor" d="M19.7662 53.2091C19.601 53.2716 19.4156 53.3542 19.2302 53.3542C18.8998 53.3542 18.7769 53.0439 18.7769 52.5906V49.0425C18.7769 47.4549 17.8481 46.8565 16.1577 46.8565C14.6506 46.8565 13.4961 47.4126 13.4961 48.5489C13.4961 49.1473 13.8668 49.518 14.4451 49.518C15.0636 49.518 15.4565 49.1473 15.4565 48.569C15.4565 48.1359 15.2288 47.8054 14.7957 47.7228C14.981 47.4347 15.3517 47.2695 15.9925 47.2695C16.6735 47.2695 16.9414 47.8054 16.9414 48.5892V49.7235L14.9186 50.4448C13.9273 50.7954 13.1032 51.291 13.1032 52.4254C13.1032 53.4771 13.8044 54.138 14.8984 54.138C15.8675 54.138 16.5687 53.5396 17.0019 52.9835C17.1469 53.7048 17.6204 54.1601 18.3437 54.1601C18.9623 54.1601 19.4781 53.8922 19.8508 53.459L19.7662 53.2091ZM16.9394 52.7155C16.5687 53.0036 16.3007 53.1487 15.9078 53.1487C15.2067 53.1487 14.8763 52.6732 14.8763 51.9721C14.8763 51.2084 15.2268 50.9405 15.8051 50.6926L16.9596 50.2393V52.7155H16.9394Z"></path>
<path fill="currentColor" d="M20.0343 53.559L19.9315 51.7235H20.4272C20.7374 52.878 21.3963 53.7464 22.4279 53.7464C23.1492 53.7464 23.7073 53.416 23.7073 52.6524C23.7073 51.9311 23.2116 51.6409 22.18 51.2702C20.7556 50.7746 20.0141 50.2185 20.0141 48.9794C20.0141 47.6375 21.0256 46.8538 22.4903 46.8538C23.3567 46.8538 24.1002 47.0593 24.6764 47.4099V49.0398H24.2231C23.9954 48.0909 23.4393 47.287 22.5105 47.287C21.8295 47.287 21.4164 47.6798 21.4164 48.2782C21.4164 48.8766 21.8496 49.1647 22.8812 49.5576C24.3258 50.0533 25.172 50.5892 25.172 51.9089C25.172 53.3334 24.1203 54.1776 22.4702 54.1776C21.4386 54.2199 20.5924 53.9721 20.0343 53.559Z"></path>
<path fill="currentColor" d="M28.041 46.9785H29.7939V47.5971H28.041V52.0538C28.041 52.8577 28.3513 53.2083 28.99 53.2083C29.3406 53.2083 29.6509 53.0854 29.9813 52.8577L30.1667 53.0854C29.7335 53.7463 29.0525 54.2399 28.0833 54.2399C26.9893 54.2399 26.2056 53.6838 26.2056 52.1566V47.5971H25.3795V47.3493C26.3083 46.9161 27.0719 46.1948 27.6703 45.3063H28.1035L28.041 46.9785Z"></path>
<path fill="currentColor" d="M36.0237 51.8694C35.5281 52.5504 34.9297 52.9634 34.023 52.9634C32.7033 52.9634 31.7544 51.8291 31.8148 49.9714H36.1889V49.6611C36.1889 48.0513 35.24 46.8767 33.4246 46.8767C31.6093 46.8767 30.1244 48.4643 30.1244 50.7552C30.1244 52.7982 31.4441 54.2428 33.3843 54.2428C34.9116 54.2428 35.9008 53.314 36.2313 51.9943L36.0237 51.8694ZM33.2796 47.3703C34.1459 47.3703 34.4764 48.2165 34.4764 49.4959H31.8148C31.9397 48.2588 32.3729 47.3703 33.2796 47.3703Z"></path>
<path fill="currentColor" d="M49.6416 45.3693L49.6618 47.5151H49.146C48.8357 45.9879 48.0519 45.1417 46.7323 45.1417C44.8968 45.1417 44.0506 46.9771 44.0506 49.268C44.0506 51.7643 45.0418 53.6623 46.8572 53.6623C48.1366 53.6623 48.9828 52.8584 49.4361 50.9181H49.9721L49.7666 53.4346C48.9828 53.9302 47.9512 54.2385 46.6718 54.2385C43.7423 54.2385 41.9471 52.4232 41.9471 49.6367C41.9471 46.5218 44.0304 44.5413 46.6718 44.5413C47.9089 44.5654 48.8982 44.8334 49.6416 45.3693Z"></path>
<path fill="currentColor" d="M53.0447 53.0653C53.0447 53.5408 53.2301 53.6012 53.8708 53.6637V54.117H50.3227V53.6637C50.9413 53.6234 51.1488 53.5408 51.1488 53.0653V45.9268L50.3651 45.4936V45.2055L52.7385 44.5668H53.0488V53.0653H53.0447Z"></path>
<path fill="currentColor" d="M60.7816 53.2091C60.6164 53.2716 60.431 53.3542 60.2456 53.3542C59.8951 53.3542 59.7923 53.0439 59.7923 52.5906L59.8125 49.0425C59.8125 47.4549 58.8635 46.8565 57.1711 46.8565C55.664 46.8565 54.5095 47.4126 54.5095 48.5489C54.5095 49.1473 54.8802 49.518 55.4585 49.518C56.077 49.518 56.4699 49.1473 56.4699 48.569C56.4699 48.1359 56.2422 47.8054 55.809 47.7228C55.9944 47.4347 56.3651 47.2695 57.0058 47.2695C57.6868 47.2695 57.9548 47.8054 57.9548 48.5892V49.7235L55.9319 50.4448C54.9407 50.7954 54.1166 51.291 54.1166 52.4254C54.1166 53.4771 54.8178 54.138 55.9118 54.138C56.8809 54.138 57.5821 53.5396 58.0153 52.9835C58.1603 53.7048 58.6338 54.1601 59.3571 54.1601C59.9757 54.1601 60.4914 53.8922 60.8642 53.459L60.7816 53.2091ZM57.9568 52.7155C57.5861 53.0036 57.3181 53.1487 56.9252 53.1487C56.2241 53.1487 55.8937 52.6732 55.8937 51.9721C55.8937 51.2084 56.2644 50.9203 56.8225 50.6926L57.977 50.2393V52.7155H57.9568Z"></path>
<path fill="currentColor" d="M61.0919 53.559L61.0294 51.7235H61.5251C61.8132 52.878 62.4942 53.7464 63.5258 53.7464C64.2471 53.7464 64.8052 53.416 64.8052 52.6524C64.8052 51.9311 64.3095 51.6409 63.2578 51.2702C61.8333 50.7746 61.0919 50.2185 61.0919 48.9794C61.0919 47.6375 62.1033 46.8538 63.5882 46.8538C64.4344 46.8538 65.1981 47.0593 65.7541 47.4099V49.0398H65.3008C65.0953 48.0909 64.517 47.287 63.5882 47.287C62.8871 47.287 62.474 47.6798 62.474 48.2782C62.474 48.8766 62.9072 49.1647 63.9388 49.5576C65.4036 50.0533 66.2498 50.5892 66.2498 51.9089C66.2498 53.3334 65.1557 54.1776 63.5056 54.1776C62.4539 54.2199 61.6278 53.9721 61.0919 53.559Z"></path>
<path fill="currentColor" d="M66.8885 53.559L66.826 51.7235H67.3217C67.6098 52.878 68.2908 53.7464 69.3224 53.7464C70.0437 53.7464 70.6018 53.416 70.6018 52.6524C70.6018 51.9311 70.086 51.6409 69.0746 51.2702C67.63 50.7746 66.9087 50.2185 66.9087 48.9794C66.9087 47.6375 67.9201 46.8538 69.405 46.8538C70.2512 46.8538 71.0148 47.0593 71.5709 47.4099V49.0398H71.1176C70.9121 48.0909 70.3338 47.287 69.405 47.287C68.7038 47.287 68.311 47.6798 68.311 48.2782C68.311 48.8766 68.7038 49.1647 69.7556 49.5576C71.2203 50.0533 72.0464 50.5892 72.0464 51.9089C72.0464 53.3334 70.9947 54.1776 69.3446 54.1776C68.2928 54.2199 67.4668 53.9721 66.8885 53.559Z"></path>
<path fill="currentColor" d="M40.8311 46.8969C40.1098 46.8969 39.6343 47.4127 39.1185 48.8774L39.1588 46.8969H38.8485L36.4348 47.6182V47.8861L37.2387 48.3818V53.1065C37.2387 53.582 37.0332 53.6424 36.4126 53.7049V54.1582H40.2286V53.7049C39.4026 53.6424 39.0943 53.5598 39.0943 53.0239V49.5786C39.2797 49.1031 39.5073 48.7122 39.8156 48.3616C39.9808 48.6719 40.2689 48.8774 40.6618 48.8774C41.3005 48.8774 41.7136 48.4442 41.7136 47.866C41.7196 47.2273 41.369 46.8969 40.8311 46.8969Z"></path>
<path fill="currentColor" d="M30.2675 0C30.2675 0 34.4965 14.6476 35.6933 18.6712C36.3542 20.8572 37.5087 21.9936 40.1078 21.7035L36.334 34.3927H28.7826C28.7826 34.3927 22.9638 13.2856 20.8604 5.98396C20.3446 4.18877 19.9315 2.80662 17.7656 2.80662C15.5997 2.80662 15.4546 2.80662 15.4546 2.80662V0H30.2675Z"></path>
<path fill="currentColor" d="M42.8941 0H54.179C54.179 0 59.6472 19.6403 62.5969 28.9467C63.03 30.3288 63.7312 31.1549 65.3209 31.2153C65.9394 31.2355 67.7548 31.2153 67.7548 31.2153V34.4128H52.7142L42.8941 0Z"></path>
<path fill="currentColor" d="M18.2813 31.2776H5.22137V34.3925H18.2813V31.2776Z"></path>
</svg>