<svg width="236" height="52" viewBox="0 0 236 52" fill="none" xmlns="http://www.w3.org/2000/svg">
<g clip-path="url(#clip0_6942_2413)">
<path d="M116.561 18.3907V20.2255C115.098 18.8136 113.174 17.9678 111.002 17.9678C106.118 17.9678 102.374 21.958 102.374 26.8997C102.374 31.8414 106.115 35.7599 111.002 35.7599C113.178 35.7599 115.101 34.9107 116.561 33.5022V35.337H120.053V18.3941L116.561 18.3907ZM115.766 29.6041C114.099 32.237 110.944 33.0248 108.441 31.4662C105.934 29.9077 105.266 26.7837 106.933 24.1509C108.601 21.5181 111.773 20.6996 114.279 22.2581C116.783 23.8167 117.434 26.9713 115.766 29.6041Z" fill="currentColor"></path>
<path d="M191.378 18.3907V20.2255C189.915 18.8136 187.992 17.9678 185.816 17.9678C180.932 17.9678 177.191 21.958 177.191 26.8997C177.191 31.8414 180.932 35.7599 185.816 35.7599C187.992 35.7599 189.915 34.9107 191.378 33.5022V35.337H194.871V18.3941L191.378 18.3907ZM190.584 29.6041C188.916 32.237 185.761 33.0248 183.255 31.4662C180.751 29.9077 180.08 26.7837 181.747 24.1509C183.415 21.5181 186.587 20.6996 189.093 22.2581C191.597 23.8167 192.248 26.9713 190.584 29.6041Z" fill="currentColor"></path>
<path d="M133.886 25.232C133.886 23.6427 133.531 22.8652 132.996 22.3025C132.46 21.7363 131.642 21.4192 130.752 21.4192C129.861 21.4192 129.039 21.7363 128.507 22.3025C127.972 22.8686 127.617 23.6427 127.617 25.232V35.3268H123.982V18.3839H127.402V19.5844C128.364 18.5953 129.756 17.961 131.359 17.961C133.32 17.961 135.066 18.8784 136.171 20.2903C137.347 18.8784 139.165 17.961 141.269 17.961C143.373 17.961 145.01 18.8784 146.153 20.3619C146.937 21.4192 147.435 22.7629 147.435 24.9148V35.3268H143.8V25.232C143.8 23.6427 143.445 22.8652 142.91 22.3025C142.374 21.7363 141.556 21.4192 140.666 21.4192C139.775 21.4192 138.954 21.7363 138.422 22.3025C137.886 22.8686 137.531 23.6427 137.531 25.232V35.3268H133.896L133.886 25.232Z" fill="currentColor"></path>
<path d="M161.07 25.232C161.07 23.6427 160.715 22.8652 160.18 22.3025C159.645 21.7363 158.826 21.4192 157.936 21.4192C157.046 21.4192 156.224 21.7363 155.688 22.3025C155.153 22.8686 154.798 23.6427 154.798 25.232V35.3268H151.163V18.3839H154.583V19.5844C155.545 18.5953 156.937 17.961 158.54 17.961C160.501 17.961 162.247 18.8784 163.352 20.2903C164.528 18.8784 166.346 17.961 168.45 17.961C170.554 17.961 172.195 18.8784 173.334 20.3619C174.118 21.4192 174.616 22.7629 174.616 24.9148V35.3268H170.981V25.232C170.981 23.6427 170.626 22.8652 170.091 22.3025C169.555 21.7363 168.737 21.4192 167.847 21.4192C166.956 21.4192 166.135 21.7363 165.599 22.3025C165.064 22.8686 164.709 23.6427 164.709 25.232V35.3268H161.07V25.232Z" fill="currentColor"></path>
<path d="M212.134 7.86962H215.769V35.3336H212.134V7.86962Z" fill="currentColor"></path>
<path d="M82.5932 18.3907V20.2255C81.1301 18.8136 79.2067 17.9678 77.0342 17.9678C72.1505 17.9678 68.4059 21.8864 68.4059 26.8281C68.4059 31.7697 72.1471 35.7599 77.0342 35.7599C79.1726 35.7599 81.096 34.9482 82.5216 33.5704V35.337C82.5216 38.2325 80.7004 40.4185 77.9857 40.7732C75.8645 41.0495 73.5318 40.4492 72.0448 39.2419C71.8641 39.0953 71.7004 38.9384 71.5469 38.7781L69.6371 41.8543C69.6848 41.8952 69.7292 41.9327 69.7769 41.9737C71.6629 43.5083 74.3059 44.3746 76.9388 44.3746C77.4435 44.3746 77.9482 44.3439 78.4496 44.2757C82.9479 43.6857 86.082 40.0093 86.082 35.337V18.3941H82.5932V18.3907ZM77.3889 32.2983C74.4287 32.2983 72.1846 29.9315 72.1846 26.8281C72.1846 23.7212 74.4287 21.426 77.3889 21.426C80.3457 21.426 82.5932 23.7553 82.5932 26.8622C82.5932 29.9725 80.3457 32.2983 77.3889 32.2983Z" fill="currentColor"></path>
<path d="M232.153 18.3293L226.765 30.4329L221.796 18.3293H218.15L224.868 34.6959L220.629 44.2177H224.323L235.843 18.3327H232.153V18.3293Z" fill="currentColor"></path>
<path d="M101.122 18.8034C99.8601 18.2509 98.4721 18.0224 97.1147 18.2986C95.9109 18.5442 94.7922 19.1444 93.926 20.0038C93.7453 20.1812 93.5713 20.3551 93.4247 20.57V18.3805H90.004V35.3234H93.6395V26.886C93.6395 24.908 94.1409 23.7792 94.956 22.9675C95.812 22.1183 96.9886 21.6272 98.3425 21.6272C98.762 21.6272 99.8465 21.7431 101.023 22.4968L102.752 19.7105C102.241 19.3627 101.692 19.0523 101.122 18.8034Z" fill="currentColor"></path>
<path d="M205.903 18.2713C204.699 18.5169 203.581 19.1171 202.714 19.9766C202.534 20.1539 202.356 20.3278 202.213 20.5393V18.3498H198.792V35.2927H202.428V26.8587C202.428 24.8807 202.926 23.7519 203.744 22.9402C204.6 22.091 205.774 21.5999 207.131 21.5999C207.55 21.5999 208.553 21.6101 209.801 22.091V18.7386C208.574 18.2202 207.226 17.9985 205.903 18.2713Z" fill="currentColor"></path>
<path fill-rule="evenodd" clip-rule="evenodd" d="M25.4278 0.871338C39.4719 0.871338 50.856 12.143 50.856 26.054C50.8559 38.2223 42.1456 48.3751 30.5571 50.7249C28.9031 51.0625 27.1877 51.2364 25.4348 51.2364H0V26.054C0 12.1431 11.3839 0.871417 25.4278 0.871338ZM37.6337 13.2514C34.1858 10.0183 29.4249 8.13562 24.2309 8.49712C15.3911 9.10078 8.22602 16.3548 7.7963 25.1195C7.30524 35.1802 15.4253 43.5117 25.4758 43.5117C35.5262 43.5117 43.1793 35.6438 43.1793 25.9788C43.1827 25.1944 43.1213 24.4237 43.0224 23.6701H31.5632L28.8655 28.2978H38.3124C36.8323 36.3498 27.7914 41.8303 18.7572 37.1921C16.8133 36.1963 15.2308 34.6582 14.2111 32.7313C9.0138 22.9333 16.1141 13.0739 25.4825 13.0739C29.3464 13.0739 32.8251 14.7484 35.2124 17.4051L37.6337 13.2514Z" fill="currentColor"></path>
</g>
<defs>
<clipPath id="clip0_6942_2413">
<rect width="235.843" height="50.3651" fill="currentColor" transform="translate(0 0.871338)"></rect>
</clipPath>
</defs>
</svg>