<svg width="136" height="39" viewBox="0 0 136 39" fill="none" xmlns="http://www.w3.org/2000/svg">
<path d="M38.6872 9.97217C41.2875 9.97217 43.3955 7.93001 43.3955 5.41089C43.3955 2.89176 41.2875 0.849609 38.6872 0.849609C36.0869 0.849609 33.979 2.89176 33.979 5.41089C33.979 7.93001 36.0869 9.97217 38.6872 9.97217Z" fill="currentColor"></path>
<path d="M45.2086 32.7184C42.5678 35.6174 38.5904 38.8496 33.9791 38.8496C31.3625 38.8496 29.7958 36.581 29.7958 34.2883C29.7958 30.1085 32.4124 23.648 32.4124 21.7488C32.4124 20.99 31.8874 20.2271 30.8416 20.2271C29.2709 20.2271 28.5723 20.8253 28.5723 20.8253L27.9424 19.5204C27.9424 19.5204 33.1796 13.3892 37.2135 13.3892C39.3051 13.3892 40.2621 14.5295 40.2621 17.1875C40.2621 20.0022 38.1705 28.5867 38.1705 31.2448C38.1705 32.4052 38.978 32.7666 40.1087 32.7666C41.4694 32.7666 43.024 31.9756 44.3969 31.024L45.2126 32.7144L45.2086 32.7184Z" fill="currentColor"></path>
<path d="M99.0138 33.8145C104.344 33.8145 108.01 32.0077 110.8 29.6869L111.83 31.5259C109.815 33.8386 103.282 38.8496 95.0243 38.8496C87.6995 38.8496 83.5283 35.4487 83.5283 29.7311C83.5283 21.7528 90.3161 13.0117 100.879 13.0117C105.309 13.0117 108.103 15.5774 108.103 19.0907C108.103 27.8319 99.2318 32.0117 90.8612 31.2488V29.727C94.5236 29.727 100.278 25.1658 100.278 20.6085C100.278 19.4682 99.7366 18.3279 98.1658 18.3279C95.0283 18.3279 91.9111 23.0779 91.9111 28.2053C91.9111 31.8471 93.4616 33.8105 99.0178 33.8105L99.0138 33.8145Z" fill="currentColor"></path>
<path d="M135.698 23.5959C135.698 16.9307 131.552 13.0078 124.715 13.0078C115.206 13.0078 109.024 19.653 109.024 29.3457C109.024 35.4247 113.995 38.8457 120.007 38.8457C130.469 38.8457 135.698 32.333 135.698 23.5959ZM121.053 33.5296C118.961 33.5296 117.391 32.0078 117.391 28.2094C117.391 23.4795 120.169 18.332 123.669 18.332C126.112 18.332 127.332 20.2312 127.332 23.6521C127.332 28.3821 124.788 33.5296 121.053 33.5296Z" fill="currentColor"></path>
<path d="M25.164 13.104C19.8421 13.104 17.3224 19.9459 17.3224 19.9459L17.7343 20.5402C18.2067 20.2591 18.772 19.9459 19.4262 19.9459C20.1368 19.9459 20.7264 20.4679 20.7264 21.8451C20.7264 24.1258 18.1057 29.731 15.7516 29.731C14.7058 29.731 14.2374 28.0446 13.559 24.9971C13.3289 24.1057 12.9251 21.821 12.3396 18.1511C11.7945 14.7502 11.4068 13.3891 9.4767 13.3891C5.04709 13.3891 0.698242 19.5243 0.698242 19.5243L1.32816 20.8293C1.8006 20.5482 2.36187 20.231 3.18561 20.231C4.75636 20.231 4.91384 21.9656 5.8143 25.1777C6.62592 28.1249 7.42543 31.0199 8.24917 34.0192C9.07694 37.0186 10.7769 38.8495 12.8686 38.8495C16.006 38.8495 19.0264 36.2035 23.1289 30.9235C25.0389 28.4903 27.0498 25.2219 28.1037 22.9212C29.1697 20.6004 29.3473 18.6249 29.3473 17.7175C29.3473 15.0835 28.3015 13.104 25.164 13.104Z" fill="currentColor"></path>
<path d="M84.4891 31.4457C83.2817 32.2045 82.0421 32.7707 81.0568 32.7707C80.1967 32.7707 79.4861 32.3892 79.4861 30.4901C79.4861 27.832 81.8402 23.9774 81.8402 18.7094C81.8402 14.5296 79.7485 13.3893 76.6111 13.3893C73.4736 13.3893 69.2863 16.0473 66.8635 20.2272C66.9079 19.7132 66.9321 19.2113 66.9321 18.7054C66.9321 15.2844 65.8863 13.3853 62.2239 13.3853C58.5615 13.3853 55.3393 16.5452 53.1103 20.2232C53.2476 19.1953 53.3284 18.1955 53.3284 17.1836C53.3284 14.5256 52.0201 13.3853 49.9284 13.3853C46.5608 13.3853 41.1177 19.5165 41.1177 19.5165L41.7476 20.8214C41.7476 20.8214 42.6319 20.2232 43.9119 20.2232C44.9577 20.2232 45.4827 20.982 45.4827 21.7449C45.4827 24.0256 43.391 28.2054 43.391 31.2449C43.391 36.5651 46.0076 38.8457 51.7617 38.8457C51.3457 37.862 50.7158 36.2198 50.7158 33.5255C50.7158 26.3062 54.3782 21.3675 56.7323 21.3675C58.0447 21.3675 58.5615 22.3191 58.5615 24.0256C58.5615 26.6836 56.9908 29.3457 56.9908 32.3852C56.9908 37.3239 59.0824 38.8457 65.3614 38.8457C64.8365 38.0868 64.3156 36.1435 64.3156 34.2844C64.3156 27.8601 67.4611 21.3635 70.853 21.3635C71.9432 21.3635 72.7306 22.3432 72.6822 24.0416C72.6822 26.6836 70.5905 31.2409 70.5905 34.6619C70.5905 36.561 71.6363 38.8417 74.7738 38.8417C77.9113 38.8417 81.0164 37.4203 84.0489 34.8305C84.6385 34.3206 85.1917 33.7946 85.7126 33.2525L84.485 31.4376L84.4891 31.4457Z" fill="currentColor"></path>
</svg>