<svg width="324" height="64" viewBox="0 0 324 64" fill="none" xmlns="http://www.w3.org/2000/svg">
<path d="M37.6 12L18.8 24L37.6 36L18.8 48L0 35.9L18.8 23.9L0 12L18.8 0L37.6 12ZM18.7 51.8L37.5 39.8L56.3 51.8L37.5 63.8L18.7 51.8ZM37.6 35.9L56.4 23.9L37.6 12L56.3 0L75.1 12L56.3 24L75.1 36L56.3 48L37.6 35.9Z" fill="currentColor"></path>
<path d="M89.8008 12.0008H105.001C114.701 12.0008 122.701 17.6008 122.701 30.4008V33.1008C122.701 46.0008 115.201 51.8008 105.301 51.8008H89.8008V12.0008ZM98.3008 19.2008V44.5008H104.801C110.301 44.5008 114.001 40.9008 114.001 32.9008V30.8008C114.001 22.8008 110.101 19.2008 104.501 19.2008H98.3008ZM127.201 19.6008H134.001L135.101 27.1008C136.401 22.0008 139.701 19.3008 145.701 19.3008H147.801V27.9008H144.301C137.401 27.9008 135.701 30.3008 135.701 37.1008V51.9008H127.301V19.6008H127.201ZM149.501 36.4008V35.5008C149.501 24.7008 156.401 18.8008 165.801 18.8008C175.201 18.8008 182.101 24.7008 182.101 35.5008V36.4008C182.101 47.0008 175.601 52.7008 165.801 52.7008C155.401 52.6008 149.501 47.0008 149.501 36.4008ZM173.501 36.3008V35.5008C173.501 29.5008 170.501 25.9008 165.701 25.9008C160.901 25.9008 157.901 29.2008 157.901 35.5008V36.3008C157.901 42.1008 160.901 45.4008 165.701 45.4008C170.501 45.3008 173.501 42.1008 173.501 36.3008ZM186.501 19.6008H193.501L194.301 25.7008C196.001 21.6008 199.601 18.8008 204.901 18.8008C213.101 18.8008 218.501 24.7008 218.501 35.6008V36.5008C218.501 47.1008 212.501 52.7008 204.901 52.7008C199.801 52.7008 196.301 50.4008 194.601 46.7008V63.0008H186.401L186.501 19.6008ZM210.001 36.3008V35.6008C210.001 29.2008 206.701 26.0008 202.301 26.0008C197.601 26.0008 194.501 29.6008 194.501 35.6008V36.2008C194.501 41.9008 197.501 45.5008 202.201 45.5008C207.001 45.4008 210.001 42.3008 210.001 36.3008ZM230.901 45.9008L230.201 51.8008H223.001V8.80078H231.201V25.3008C233.001 21.1008 236.601 18.8008 241.701 18.8008C249.401 18.9008 255.101 24.2008 255.101 34.9008V35.9008C255.101 46.6008 249.701 52.7008 241.501 52.7008C236.101 52.6008 232.601 50.1008 230.901 45.9008ZM246.501 35.9008V35.1008C246.501 29.2008 243.301 25.9008 238.801 25.9008C234.301 25.9008 231.001 29.6008 231.001 35.2008V35.9008C231.001 41.9008 234.101 45.4008 238.701 45.4008C243.601 45.4008 246.501 42.3008 246.501 35.9008ZM258.701 36.4008V35.5008C258.701 24.7008 265.601 18.8008 275.001 18.8008C284.401 18.8008 291.301 24.7008 291.301 35.5008V36.4008C291.301 47.0008 284.701 52.7008 275.001 52.7008C264.601 52.6008 258.701 47.0008 258.701 36.4008ZM282.801 36.3008V35.5008C282.801 29.5008 279.801 25.9008 275.001 25.9008C270.201 25.9008 267.201 29.2008 267.201 35.5008V36.3008C267.201 42.1008 270.201 45.4008 275.001 45.4008C279.801 45.3008 282.801 42.1008 282.801 36.3008ZM302.301 35.1008L291.001 19.6008H300.701L307.201 29.3008L313.801 19.6008H323.401L311.901 35.0008L324.001 51.8008H314.501L307.101 41.1008L299.901 51.8008H290.001L302.301 35.1008Z" fill="currentColor"></path>
</svg>