<svg width="316" height="124" viewBox="0 0 316 124" fill="none" xmlns="http://www.w3.org/2000/svg">
<path d="M151.594 1.05469C147.813 1.61964 144.183 2.68861 140.813 4.17113C140.813 4.17113 144.746 11.5598 146.736 16.5169C149.621 23.6951 150.349 30.48 150.349 30.48C152.244 29.5052 154.738 28.7556 156.982 28.5747C156.982 28.5747 157.068 21.6716 155.504 14.5544C153.669 6.24261 151.594 1.05469 151.594 1.05469ZM163.972 1.05469C163.972 1.05469 161.891 6.24076 160.062 14.5562C158.497 21.6735 158.641 28.5747 158.641 28.5747C160.891 28.7556 163.326 29.5052 165.218 30.4782C165.218 30.4782 165.946 23.6951 168.83 16.5169C170.82 11.5598 174.751 4.16929 174.751 4.16929C171.32 2.65986 167.694 1.61205 163.972 1.05469ZM132.58 9.0175C129.544 11.2995 126.807 13.9285 124.525 16.9194C124.525 16.9194 130.882 19.6297 135.542 24.0182C141.915 30.0258 144.191 36.0741 144.191 36.0741C145.381 34.2223 146.954 32.6322 148.81 31.405C148.81 31.405 146.424 24.1179 142.591 18.7693C138.755 13.4189 132.582 9.01935 132.582 9.01935L132.58 9.0175ZM183.045 9.0175C183.045 9.0175 176.813 13.4171 172.975 18.7656C169.137 24.116 166.757 31.4031 166.757 31.4031C168.613 32.6309 170.186 34.2216 171.376 36.0741C171.376 36.0741 173.643 30.0258 180.024 24.0182C184.677 19.6297 191.04 16.9212 191.04 16.9212C188.761 13.9407 186.07 11.281 183.043 9.0175H183.045ZM120.202 24.0754C118.604 27.4653 117.507 31.0588 116.945 34.7485C116.945 34.7485 122.616 34.1522 130.743 37.1726C137.426 39.6576 141.82 43.7489 141.82 43.7489C141.871 41.7439 142.411 39.7241 143.184 37.9794C143.184 37.9794 141.029 34.0598 134.712 29.8449C127.931 25.3142 120.202 24.0754 120.202 24.0754ZM195.365 24.0754C195.365 24.0754 187.638 25.3142 180.852 29.8449C174.541 34.0617 172.384 37.9794 172.382 37.9794C173.159 39.7241 173.697 41.7439 173.747 43.7489C173.747 43.7489 178.133 39.6576 184.821 37.1708C192.95 34.1522 198.621 34.7485 198.621 34.7485C198.058 31.0587 196.962 27.4652 195.363 24.0754H195.365Z" fill="currentColor"></path>
<path d="M124.236 41.8934C119.44 41.8727 116.754 42.7746 116.754 42.7746C116.856 46.6396 117.527 50.3468 118.639 53.8716C118.639 53.8716 123.895 51.243 130.304 50.9349C138.383 50.5478 143.912 52.6973 143.912 52.6973C142.909 50.8954 142.304 48.8474 142.085 46.7073C142.085 46.7073 135.631 43.0941 129.714 42.3049C127.899 42.0516 126.069 41.9142 124.236 41.8934ZM191.449 41.8934C189.85 41.9009 188.018 42.0306 185.971 42.3049C180.057 43.0941 173.66 46.7073 173.66 46.7073C173.444 48.8103 172.802 50.848 171.775 52.6973C171.775 52.6973 177.303 50.5478 185.383 50.9349C191.792 51.243 197.045 53.8716 197.045 53.8716C198.19 50.2784 198.825 46.5432 198.93 42.7746C198.93 42.7746 196.246 41.8727 191.449 41.8934ZM136.96 54.3996C135.531 54.4748 134.078 54.6552 132.719 54.9295C124.487 56.5829 120.879 59.4502 120.879 59.4502C122.532 62.8583 124.654 66.0202 127.182 68.8449C127.182 68.8449 130.573 65.6357 136.43 62.8548C144.355 59.0932 152.395 59.8617 152.395 59.8617C149.558 58.8095 147.073 57.0207 145.267 54.6946C145.267 54.6946 141.252 54.1779 136.96 54.3996ZM174.661 54.3996C172.208 54.4748 170.419 54.6946 170.419 54.6946C168.594 57.0419 166.145 58.832 163.35 59.8617C163.35 59.8617 171.334 59.0913 179.256 62.8548C185.111 65.6357 188.504 68.8468 188.504 68.8468C191.053 66.0251 193.194 62.8631 194.866 59.4521C194.866 59.4521 191.2 56.5867 182.966 54.9295C180.248 54.3846 177.115 54.3282 174.661 54.4034V54.3996ZM157.872 60.5663C141.116 60.5663 131.305 72.8357 131.305 72.8357C134.295 75.3467 137.627 77.4229 141.201 79.0024C141.201 79.0024 146.31 69.0196 157.872 69.0196C169.435 69.0196 174.485 79.0024 174.485 79.0024C178.061 77.4257 181.393 75.35 184.382 72.8376C184.382 72.8376 174.63 60.5663 157.872 60.5663ZM0.000976562 90.3343V93.3875H4.18387V119.928H0.000976562V122.923H11.6052V119.928H7.48456V110.063H13.6675C16.7344 110.063 19.2227 109.655 21.562 107.421C23.6204 105.46 24.6836 102.908 24.6836 100.082C24.6836 97.1154 23.3528 94.2255 20.972 92.4481C18.7288 90.8078 16.0728 90.3343 13.3734 90.3343H0.000976562ZM145.797 90.3343V93.1527H149.803V104.486C147.882 100.747 144.01 98.5546 139.848 98.5546C133.167 98.5546 127.595 104.289 127.595 110.944C127.595 113.317 128.419 115.912 129.655 117.874C131.761 121.2 136.166 123.567 139.965 123.567C144.127 123.567 147.742 121.431 149.803 117.874V122.923H156.872V120.104H152.807V90.3343H145.797ZM171.952 90.3343V93.3875H176.135V119.928H171.95V122.923H183.32V119.928H179.432V93.3875H185.854C188.325 93.3875 190.41 93.4326 192.333 95.2082C193.98 96.7095 194.808 98.8609 194.808 101.138C194.809 102.445 194.473 103.731 193.833 104.872C193.194 106.013 192.272 106.971 191.155 107.656C189.008 108.977 186.617 108.889 184.144 108.889H182.908L193.04 122.923H199.402V119.928H195.043L188.21 111.003C193.792 111.003 198.107 106.48 198.107 100.963C198.107 97.7692 196.863 94.8381 194.395 92.7412C191.88 90.5992 189.241 90.3362 186.09 90.3362L171.952 90.3343ZM206.176 90.3343V95.0316H209.181V90.3343H206.176ZM304.553 90.3343V93.1527H308.558V104.486C306.636 100.747 302.764 98.5546 298.602 98.5546C291.925 98.5546 286.29 104.289 286.29 110.944C286.29 113.317 287.176 115.912 288.411 117.874C290.517 121.2 294.922 123.567 298.72 123.567C302.881 123.567 306.498 121.431 308.558 117.874V122.923H315.567V120.104H311.561V90.3343H304.553ZM7.48267 93.3875H13.315C15.4205 93.3875 17.053 93.5905 18.7929 94.9151C19.5927 95.5476 20.2405 96.3502 20.689 97.2644C21.1374 98.1786 21.3752 99.1811 21.3848 100.199C21.3848 102.296 20.5573 104.176 18.9097 105.542C17.2641 106.91 15.4319 107.07 13.3734 107.07H7.48267V93.3875ZM37.466 98.5546C30.514 98.5546 25.0945 104.387 25.0945 111.179C25.0945 118.02 30.7364 123.569 37.6432 123.569C40.0552 123.575 42.4174 122.885 44.445 121.583C46.4725 120.281 48.0789 118.421 49.0703 116.23H45.8902C44.1503 119.24 41.008 120.867 37.5244 120.867C32.5857 120.867 28.3726 116.981 28.0993 112.06H50.0712V111.121C50.0712 104.051 44.6046 98.5546 37.466 98.5546ZM86.0056 98.5546C82.7143 98.5546 79.4457 100.174 77.9358 103.135V98.9661H70.8669V101.785H74.931V120.104H70.8669V122.923H81.9415V120.104H77.9358V110.121C77.9358 107.889 77.9716 105.841 79.5249 104.015C80.9009 102.418 83.0782 101.55 85.18 101.55C87.4722 101.55 90.1451 102.194 91.4251 104.426C92.5241 106.3 92.6032 108.391 92.6032 110.533V120.104H88.5391V122.923H99.6137V120.104H95.608V109.417C95.608 106.499 94.8464 104.325 94.2526 103.135C92.6956 99.9883 88.705 98.5546 86.0056 98.5546ZM112.573 98.5546C105.57 98.5546 99.9077 104.144 99.9077 111.121C99.9077 117.96 105.499 123.569 112.455 123.569C119.499 123.569 125.062 117.864 125.062 110.886C125.062 104.137 119.388 98.5546 112.573 98.5546ZM224.968 98.5546C221.492 98.5546 218.476 100.048 216.192 102.373C213.992 104.609 212.655 107.758 212.655 111.179C212.655 117.885 218.269 123.569 225.085 123.569C230.344 123.569 235.204 120.378 236.985 115.407H233.628C232.211 118.597 228.808 120.516 225.379 120.516C219.981 120.516 215.72 116.455 215.72 111.121C215.72 105.828 219.834 101.55 225.146 101.55C228.486 101.55 231.653 103.361 233.391 106.189H236.218V98.9661H233.391V102.373C231.198 99.9112 228.358 98.5546 224.968 98.5546ZM250.71 98.5546C246.365 98.5546 242.248 100.729 240.284 104.191C239.276 105.971 238.28 107.592 238.28 111.063C238.186 113.706 239.038 115.97 240.224 117.932C242.331 121.401 246.318 123.569 250.71 123.569C254.876 123.569 258.447 121.534 260.548 117.932V122.923H267.498V120.104H263.551V101.785H267.498V98.9661H260.548V104.191C258.352 100.544 255.061 98.5546 250.71 98.5546ZM51.7206 98.9661V101.785H55.7866V120.104H51.7206V122.923H62.7952V120.104H58.7914V110.475C58.7914 105.37 61.1401 102.237 66.4484 101.785V98.9661C63.0157 99.1014 59.8885 100.509 58.7895 103.84V98.9661H51.7206ZM202.171 98.9661V101.785H206.176V120.104H202.052V122.923H213.187V120.104H209.181V98.9661H202.171ZM270.739 98.9661V101.785H274.803V120.104H270.739V122.923H281.813V120.104H277.808V110.475C277.808 105.37 280.16 102.237 285.467 101.785V98.9661C282.032 99.1014 278.907 100.509 277.808 103.84V98.9661H270.739ZM37.4076 101.315C42.3011 101.315 46.5556 104.716 47.2437 109.593H28.0993C28.6478 105.08 32.7855 101.315 37.4076 101.315ZM140.317 101.433C145.576 101.433 149.92 105.653 149.92 110.944C149.92 116.326 145.716 120.692 140.317 120.692C135.058 120.692 130.598 116.408 130.598 111.121C130.596 109.848 130.846 108.588 131.334 107.411C131.822 106.235 132.538 105.166 133.441 104.266C134.343 103.366 135.416 102.652 136.596 102.166C137.776 101.679 139.04 101.432 140.317 101.433ZM299.014 101.433C304.274 101.433 308.617 105.653 308.617 110.944C308.617 116.326 304.413 120.692 299.014 120.692C293.751 120.692 289.354 116.408 289.354 111.121C289.354 105.785 293.614 101.433 299.014 101.433ZM111.512 101.55C111.836 101.518 112.183 101.55 112.515 101.55C117.819 101.55 121.997 105.862 121.997 111.063C121.999 112.312 121.753 113.55 121.275 114.705C120.796 115.86 120.093 116.909 119.207 117.793C118.32 118.677 117.267 119.377 116.109 119.854C114.95 120.332 113.708 120.576 112.455 120.574C107.101 120.574 102.912 116.203 102.912 111.003C102.916 108.645 103.797 106.372 105.386 104.626C106.975 102.879 109.158 101.783 111.512 101.55ZM250.003 101.55C250.328 101.518 250.673 101.55 251.004 101.55C256.264 101.55 260.548 105.76 260.548 111.003C260.548 116.339 256.333 120.632 250.888 120.632C245.628 120.632 241.285 116.277 241.285 111.121C241.285 106.161 245.15 102.04 250.003 101.55Z" fill="currentColor"></path>
</svg>