<svg width="184" height="55" viewBox="0 0 184 55" fill="none" xmlns="http://www.w3.org/2000/svg">
<g clip-path="url(#clip0_1859_381)">
<path d="M148.122 46.093H36.8003L45.6678 55L148.122 46.093Z" fill="currentColor"></path>
<path d="M40.6533 33.8467C36.8077 33.8467 33.992 30.0429 33.992 25.2382C33.992 20.4371 36.8077 16.6329 40.6533 16.6329C44.5035 16.6329 47.2173 20.4371 47.2173 25.2382C47.2173 30.0429 44.5035 33.8467 40.6533 33.8467ZM47.1125 10.067V11.4133C45.0456 10.0911 43.1916 9.32172 40.6533 9.32172C32.8543 9.32172 26.9297 16.465 26.9297 25.2382C26.9297 34.0138 32.8543 41.1528 40.6533 41.1528C43.1916 41.1528 45.0456 40.3869 47.1125 39.0622V40.4076H53.9676V10.067H47.1125Z" fill="currentColor"></path>
<path d="M102.03 10.067V27.8903C102.03 31.2335 99.7434 34.0571 96.4125 34.0571C93.0847 34.0571 90.7961 31.2335 90.7961 27.8903V10.067H83.9404V27.8903C83.9404 35.2035 88.9211 41.1528 96.2031 41.1528C99.5751 41.1528 102.03 39.2796 102.03 39.2796V40.4076H108.886V10.067H102.03Z" fill="currentColor"></path>
<path d="M165.911 40.4077V22.5843C165.911 19.2411 168.197 16.4175 171.528 16.4175C174.856 16.4175 177.144 19.2411 177.144 22.5843V40.4077H184V22.5843C184 15.2713 179.019 9.32169 171.737 9.32169C168.365 9.32169 165.911 11.1951 165.911 11.1951V10.0672H159.055V40.4077H165.911Z" fill="currentColor"></path>
<path d="M7.17019 9.70253H11.8492C15.0687 9.70253 17.702 12.3332 17.702 15.5736C17.702 18.8225 15.0687 21.4513 11.8492 21.4513H7.17019V9.70253ZM7.17019 40.4077V28.653H12.2416L21.0213 40.4077H29.9968L19.3877 26.2239C22.6938 23.8403 24.8654 19.9642 24.8654 15.5736C24.8654 8.36286 19.028 2.50633 11.8492 2.50633H0V40.4077H7.17019Z" fill="currentColor"></path>
<path d="M127.363 33.2285C126.748 33.648 125.97 33.9747 125.071 33.9747C123.951 33.9747 121.839 33.1152 121.839 30.2521V17.2683H127.702V10.0668H121.839L121.839 2.50599H114.983L114.983 10.0668H111.356V17.2683H114.983V30.3574C114.981 37.1323 120.063 41.1792 125.176 41.1792C127.081 41.1792 129.725 40.5525 131.882 39.2694L127.363 33.2285Z" fill="currentColor"></path>
<path d="M71.0122 24.2891L82.7718 10.0672H73.1615L64.9367 20.6368V0.000379456H57.877V40.4077H64.9367V27.9444L75.048 40.4077H84.6534L71.0122 24.2891Z" fill="currentColor"></path>
<path d="M149.184 21.3213H136.836C138.279 14.215 147.848 13.8073 149.184 21.3213ZM143.199 9.29726C135.264 9.29726 129.572 16.3009 129.572 25.2375C129.572 34.634 136.716 41.1802 143.88 41.1802C147.496 41.1802 152.129 39.9349 156.021 34.3884L149.966 30.8759C145.283 37.8099 137.478 34.2906 136.577 27.3571L156.325 27.3615C158.015 16.4642 150.999 9.29726 143.199 9.29726Z" fill="currentColor"></path>
</g>
<defs>
<clipPath id="clip0_1859_381">
<rect width="184" height="55" fill="currentColor"></rect>
</clipPath>
</defs>
</svg>