<svg width="285" height="75" viewBox="0 0 285 75" fill="none" xmlns="http://www.w3.org/2000/svg"><path d="M31.53.383c20.07 0 31.529 13.483 31.529 30.784s-10.322 30.899-31.53 30.899C10.322 62.066 0 48.13 0 31.166S12.248.384 31.53.384m0 52.132c11.226 0 18.144-9.214 18.144-21.348S42.749 9.71 31.529 9.71s-18.144 9.322-18.144 21.456 6.918 21.348 18.144 21.348m52.961 7.75c.225.444.116.56-.108.897-.913 1.349-2.724 2.698-5.447 2.698-3.52 0-5.672-1.801-7.15-2.584-.68-.337-1.585-.445-2.15.223l-4.99 5.396c-.913.79-.913 2.024 0 2.806 3.179 3.035 9.98 5.052 14.855 4.721 10.546-.904 13.726-6.63 19.506-19.439l17.919-39.545c.565-1.235-.449-2.584-1.702-2.584h-10.321c-.797 0-1.478.56-1.818 1.35L91.061 46.335a.672.672 0 0 1-1.246 0L77.111 14.203c-.34-.789-.913-1.349-1.703-1.349h-10.43c-1.361 0-2.274 1.35-1.818 2.584.225 0 20.984 44.152 21.317 44.834zm57.047 1.8c12.821 0 20.752-6.178 20.752-14.832 0-17.975-33.34-12.7-33.34-22.696 0-2.921 2.716-4.722 7.366-4.722 6.237 0 12.248 2.583 15.877 7.527.565.79 1.586 1.012 2.383.56l6.237-3.373c1.021-.56 1.361-1.686.68-2.583-5.446-7.865-15.312-10.785-24.612-10.785-12.016 0-20.187 5.84-20.187 14.717 0 18.428 32.319 12.242 32.319 21.57 0 2.921-1.818 4.83-6.917 4.83-6.12 0-11.683-2.138-15.536-6.4-.565-.675-1.246-1.687-2.492-1.127l-8.844 3.932c-1.021.445-1.246 1.571-.449 2.468 8.612 10.111 18.825 10.9 26.763 10.9zm19.847-48.314 14.175-12.02c1.245-1.01 2.832 0 2.832 1.013v9.888c0 .115.116.222.224.222h12.821c1.021 0 1.926.904 1.926 1.91v5.503c0 1.019-.905 1.909-1.926 1.909h-12.821c-.108 0-.224.114-.224.222v18.198c0 3.035.224 11.122 6.917 10.9 2.042 0 4.085-.56 5.671-1.35a1.16 1.16 0 0 1 1.471.446l4.65 6.86c.34.56.224 1.234-.341 1.571-4.758 3.035-12.472 3.48-16.782 2.691-8.619-1.686-14.631-6.293-14.631-19.21V22.966c0-1.234-.341-2.024-1.13-2.92l-3.296-3.818c-.681-.79-.34-1.801.456-2.469zm56.931-2.583c16.449-.115 24.953 10.9 25.293 26.967.109 1.011-.797 1.908-1.818 1.908h-34.934c-.34 0-.449.223-.449.445 1.246 8.31 6.012 12.242 12.821 12.242 6.12 0 9.749-3.48 11.791-6.853.341-.674 1.138-1.012 1.927-.79l8.96 2.584c.913.223 1.362 1.234 1.021 2.131-3.404 7.42-12.357 12.25-23.699 12.25-16.79 0-26.09-10.226-26.09-25.955 0-15.73 11.227-24.943 25.177-24.943zM206.748 31.84l23.475-.107c.116 0 .34 0 .224-.445-1.246-6.968-5.331-11.237-12.132-11.237s-10.887 5.166-11.908 11.352c-.108.445.225.445.341.445zm77.798-12.471c.565.674.681 1.686-.116 2.36l-6.808 5.62c-.797.674-1.818.56-2.492-.223-1.021-1.35-2.948-3.932-6.352-3.932-2.608.114-5.099.904-7.142 4.154-1.47 2.139-1.926 4.607-1.926 7.19v24.269c0 1.012-.797 1.801-1.819 1.801h-9.524c-1.022 0-1.818-.79-1.818-1.801V14.763c0-1.012.796-1.909 1.818-1.909h5.896c.796 0 1.477.223 1.818 1.464l1.253 4.715a.432.432 0 0 0 .681.114c1.702-2.698 5.215-6.515 11.907-7.082 6.353-.445 10.662 2.36 14.632 7.305z" fill="currentColor"></path></svg>