<svg width="200" height="128" viewBox="0 0 200 128" fill="none" xmlns="http://www.w3.org/2000/svg"><g clip-path="url(#a)" fill="currentColor"><path d="M11.002 78.413c7.756 6.195 18.124 10.215 29.055 10.215 12.647 0 20.276-5.76 20.276-14.234 0-7.194-4.173-12.647-13.364-13.799-4.608-.588-8.191-1.151-13.516-1.868-17.69-2.458-27.187-13.978-27.187-28.8C6.266 12.39 18.502.026 39.622.026c12.647 0 23.885 4.454 33.23 10.65l-8.628 12.8c-7.475-4.736-16.256-7.91-25.293-7.91-9.497 0-17.126 4.889-17.126 14.668 0 5.76 4.172 11.52 14.515 13.081 2.74.436 6.63.999 11.494 1.588 19.124 2.304 28.058 15.539 28.058 29.49 0 18.843-13.952 29.774-35.968 29.774-15.104 0-28.34-4.608-39.117-14.106z"></path><path d="M128.531 92.928c-8.499 6.323-17.69 11.213-28.62 11.213-19.278 0-32.36-14.669-32.36-31.514 0-12.083 7.04-23.45 19.56-29.9-4.89-5.607-8.5-12.519-8.5-19.431C78.611 10.931 87.801 0 101.625 0s23.015 10.931 23.015 23.296c0 9.498-4.89 17.126-17.127 22.86l21.863 26.318c4.173-5.325 6.349-9.498 8.499-15.668l13.082 5.172c-3.021 7.475-7.194 14.668-12.954 20.71zM95.328 52.531c-10.368 5.607-14.823 12.8-14.823 19.994 0 10.777 8.781 18.688 18.996 18.688 6.323 0 13.798-2.586 20.556-9.063zm3.865-16.691c9.498-3.584 12.519-7.91 12.519-13.082 0-5.17-4.327-9.779-10.061-9.779s-10.06 4.455-10.06 9.78c0 4.147 3.148 9.062 7.602 13.081"></path><path d="M134.342 78.413c7.757 6.195 18.125 10.214 29.056 10.214 12.647 0 20.276-5.76 20.276-14.233 0-7.194-4.173-12.647-13.364-13.799-4.608-.588-8.217-1.152-13.516-1.868-17.69-2.432-27.188-13.952-27.188-28.775 0-17.536 12.237-29.9 33.357-29.9 12.647 0 23.885 4.454 33.229 10.649l-8.627 12.8c-7.475-4.736-16.256-7.91-25.293-7.91-9.498 0-17.126 4.89-17.126 14.668 0 5.76 4.172 11.52 14.515 13.082 2.713.435 6.63.998 11.494 1.587 19.123 2.304 28.058 15.54 28.058 29.491 0 18.842-13.952 29.773-35.968 29.773-15.104 0-28.339-4.608-39.117-14.105zM31.251 125.158h-4.71l-.973 2.765h-1.971l4.505-12.39h1.562l4.505 12.39h-1.996zm-.538-1.689-1.791-5.402h-.026l-1.792 5.402zm18.945.973C49.17 126.746 47.43 128 45.306 128c-1.946 0-3.303-1.152-3.891-2.227-.41-.717-.538-1.101-.538-4.071s.128-3.328.538-4.07c.588-1.075 1.92-2.227 3.89-2.227 2.356 0 3.969 1.664 4.353 3.686H47.66c-.282-.947-1.178-1.792-2.355-1.792-.896 0-1.536.41-1.92.896-.487.615-.615.973-.615 3.533s.128 2.893.615 3.533c.384.486 1.024.896 1.92.896 1.024 0 1.843-.589 2.355-1.69h1.997zm9.523-7.245h-3.38v-1.69h8.68v1.69h-3.406v10.726h-1.894zm14.592-1.664h-1.869v12.416h1.87zm7.423-.026h1.997l2.816 9.447h.026l2.816-9.447h1.996l-4.096 12.416h-1.459zm17.076 0h7.91v1.792h-6.042v3.533h5.171v1.664h-5.171v3.635h6.042v1.792h-7.91zm14.668 0h1.997l1.946 8.832h.025l2.407-8.832h1.357l2.406 8.832h.026l1.971-8.832h1.971l-3.098 12.416h-1.561l-2.381-8.934h-.026l-2.38 8.934h-1.562zm21.709 0h7.911v1.792h-6.042v3.533h5.171v1.664h-5.171v3.635h6.042v1.792h-7.911zm22.144 9.651h-4.71l-.973 2.765h-1.971l4.505-12.39h1.562l4.505 12.39h-1.996zm-.538-1.689-1.792-5.402h-.025l-1.792 5.402zm10.906-7.962H172c1.024 0 1.868.231 2.508.82.692.588 1.255 1.536 1.255 2.662 0 1.613-.896 2.893-2.407 3.43l2.893 5.504h-2.253l-2.56-5.299h-2.406v5.299h-1.869zm1.869 5.453h2.842c1.408 0 2.099-.921 2.099-1.971 0-.64-.231-1.126-.615-1.408-.358-.256-.716-.384-1.382-.384h-2.944z"></path></g><defs><clipPath id="a"><path fill="currentColor" d="M.787 0h198.426v128H.787z"></path></clipPath></defs></svg>