<svg width="274" height="144" viewBox="0 0 274 144" fill="none" xmlns="http://www.w3.org/2000/svg"><path fill-rule="evenodd" clip-rule="evenodd" d="M60.235 142.52a31.45 31.45 0 0 1-16.932.597 26.5 26.5 0 0 1-3.84-1.267 26 26 0 0 1-3.567-1.902 26.5 26.5 0 0 1-3.223-2.463 26.6 26.6 0 0 1-2.753-2.969 25.6 25.6 0 0 1-3.767-7.335 25.3 25.3 0 0 1-1.213-8.149 24.8 24.8 0 0 1 1.467-8.113 24.8 24.8 0 0 1 3.984-7.207 24 24 0 0 1 1.81-1.992 26 26 0 0 1 2.029-1.757q1.05-.815 2.21-1.503 1.14-.705 2.372-1.268 1.214-.543 2.463-.96 1.267-.416 2.553-.724 1.304-.29 2.608-.453a22 22 0 0 1 2.644-.199 33.4 33.4 0 0 1 5.83.218q1.449.199 2.862.525a28 28 0 0 1 2.825.76l.58.145v12.731l-.272-.145a21 21 0 0 0-2.861-1.231 22 22 0 0 0-3.006-.797 20.5 20.5 0 0 0-3.097-.344 19 19 0 0 0-3.115.109q-.87.109-1.738.325-.851.236-1.666.58-.796.361-1.558.815-.742.47-1.43 1.032-.761.616-1.413 1.34a13 13 0 0 0-1.177 1.558 13 13 0 0 0-.888 1.738 11 11 0 0 0-.597 1.865 12 12 0 0 0-.326 1.884q-.108.96-.072 1.919.035.96.199 1.92.181.942.47 1.847.272.85.67 1.63.399.796.906 1.521.508.726 1.123 1.358.597.633 1.304 1.177.978.742 2.064 1.304 1.104.543 2.264.888 1.177.345 2.408.488 1.215.128 2.445.019 1.177-.055 2.354-.218a26 26 0 0 0 2.318-.471q1.141-.29 2.264-.706a24 24 0 0 0 2.173-.905l.254-.109v12.64zm125.153 0a31.45 31.45 0 0 1-16.932.597 24.5 24.5 0 0 1-3.839-1.285 23 23 0 0 1-3.568-1.884 25 25 0 0 1-3.223-2.481 23.7 23.7 0 0 1-2.753-2.97 25.3 25.3 0 0 1-3.767-7.316 25 25 0 0 1-1.213-8.149 24.8 24.8 0 0 1 1.467-8.113 24.8 24.8 0 0 1 3.984-7.207 24 24 0 0 1 1.811-1.992 26 26 0 0 1 2.028-1.757 22 22 0 0 1 2.209-1.503q1.141-.705 2.373-1.268a24 24 0 0 1 2.463-.96q1.25-.434 2.553-.724a27 27 0 0 1 2.608-.453 22 22 0 0 1 2.644-.199q1.467-.09 2.915-.018 1.468.054 2.916.236 1.448.199 2.861.507 1.431.325 2.825.778l.58.145v12.731l-.272-.145a21 21 0 0 0-2.861-1.231 22 22 0 0 0-3.006-.797 20.5 20.5 0 0 0-3.097-.344 19 19 0 0 0-3.115.109q-.869.109-1.738.325-.851.236-1.666.58-.797.361-1.558.815-.76.47-1.43 1.032-.761.616-1.413 1.34a13 13 0 0 0-1.177 1.558 13 13 0 0 0-.887 1.738 11.3 11.3 0 0 0-.598 1.847 12.6 12.6 0 0 0-.326 1.902q-.108.96-.072 1.919.035.96.199 1.902.18.96.471 1.865.27.85.67 1.63a12 12 0 0 0 2.01 2.879q.616.633 1.322 1.177.978.743 2.064 1.286 1.088.562 2.264.906 1.177.344 2.408.47 1.215.127 2.445.037 1.177-.055 2.354-.218a26 26 0 0 0 2.318-.471 22 22 0 0 0 2.264-.706 22 22 0 0 0 2.173-.923l.254-.109v12.658zm-79.174-10.648q1.611.415 3.26.76.797.144 1.575.272.797.127 1.594.235.78.11 1.576.199l1.593.145 1.214.037q.615 0 1.231-.037.597-.035 1.213-.09.598-.073 1.195-.163.417-.054.815-.145.416-.09.797-.199.399-.127.779-.29t.742-.344q.344-.18.634-.417.291-.235.543-.525.236-.29.417-.615.181-.345.29-.707a3.9 3.9 0 0 0 0-1.829 4.6 4.6 0 0 0-1.159-1.72 7.15 7.15 0 0 0-2.572-1.594l-.271-.108-.978-.363q-.96-.308-1.938-.615a25.6 25.6 0 0 1-5.65-2.21 16.5 16.5 0 0 1-3.712-2.698 11.4 11.4 0 0 1-2.88-4.328 16.4 16.4 0 0 1-.67-2.535 15.5 15.5 0 0 1-.217-2.59q0-1.303.235-2.608.217-1.286.67-2.517.29-.815.688-1.575.415-.761.924-1.449.508-.706 1.105-1.322.597-.634 1.267-1.16a17.4 17.4 0 0 1 2.119-1.448 20 20 0 0 1 2.282-1.123 19 19 0 0 1 2.445-.778q1.23-.29 2.517-.417a28 28 0 0 1 2.028-.18 38 38 0 0 1 2.028-.055q1.015 0 2.028.072c.689.05 1.364.114 2.029.2q.778.09 1.557.217.779.108 1.558.253.779.127 1.539.29t1.539.344l.779.163v10.051l-.435-.091a43 43 0 0 0-6.066-1.086 16 16 0 0 0-1.304-.163q-.652-.055-1.322-.073-.653 0-1.304.036-.652.055-1.304.145a8.7 8.7 0 0 0-2.934.851l-.326.181a5 5 0 0 0-.326.2q-.145.108-.289.235a6 6 0 0 0-.272.254 3 3 0 0 1-.163.181l-.145.181q-.054.09-.127.181a3 3 0 0 1-.108.199 3 3 0 0 0-.254.598 3.6 3.6 0 0 0-.09.634q-.02.325.054.651.054.309.199.616.163.363.399.67.235.327.525.598.29.272.615.489.327.217.707.38l8.203 3.042q.687.236 1.358.526.653.307 1.286.67.634.361 1.213.796.599.436 1.123.906.561.49 1.069 1.014.49.543.923 1.141.416.597.779 1.231.362.652.634 1.322c.344.87.616 1.775.797 2.68.181.924.271 1.848.271 2.789a14.5 14.5 0 0 1-.996 5.469 14 14 0 0 1-.67 1.54q-.4.742-.869 1.43-.489.687-1.05 1.304a14 14 0 0 1-1.196 1.159q-.705.597-1.485 1.123-.76.524-1.575.96a24 24 0 0 1-1.684.796q-.87.345-1.757.598a27.5 27.5 0 0 1-6.284 1.177q-.833.054-1.666.054-.833.02-1.666 0-.833-.018-1.666-.054a69 69 0 0 1-1.684-.127 66 66 0 0 1-7.552-.978l-.796-.126.054-10.902zM77.62 95.653h11.97V143.1H77.62zm124.754 11.21a25.09 25.09 0 0 1 22.166-12.061 25.07 25.07 0 0 1 12.514 3.749 24.5 24.5 0 0 1 9.67 10.793 24.4 24.4 0 0 1 1.811 14.378 24.4 24.4 0 0 1-6.664 12.876 24.3 24.3 0 0 1-12.803 6.791 25.2 25.2 0 0 1-10.975-.036 24.9 24.9 0 0 1-9.887-4.745 24.8 24.8 0 0 1-6.9-8.529 25.2 25.2 0 0 1-2.59-10.685 25.16 25.16 0 0 1 3.658-12.531M211.61 118a12.57 12.57 0 0 0 2.662 9.091 12.55 12.55 0 0 0 8.276 4.6c3.242.38 6.519-.526 9.109-2.518a12.55 12.55 0 0 0 4.709-8.384c.38-3.296-.58-6.628-2.644-9.236a12.56 12.56 0 0 0-8.421-4.618 12.56 12.56 0 0 0-9.218 2.735 12.56 12.56 0 0 0-4.473 8.33M.384 44.386a5.94 5.94 0 0 1 1.775-4.111 5.9 5.9 0 0 1 4.147-1.684c1.557 0 3.024.597 4.128 1.684a5.8 5.8 0 0 1 1.775 4.11v13.148a6 6 0 0 1-1.865 3.912c-.833.742-1.847 1.267-2.934 1.467a5.96 5.96 0 0 1-3.278-.308 6 6 0 0 1-2.607-1.992 6.14 6.14 0 0 1-1.141-3.079zM33.125 28.05a5.85 5.85 0 0 1 1.811-4.038 5.9 5.9 0 0 1 8.222 0 5.85 5.85 0 0 1 1.81 4.038v29.482a5.9 5.9 0 0 1-.579 2.137 5.92 5.92 0 0 1-3.17 2.952 6.3 6.3 0 0 1-2.172.398 6 6 0 0 1-2.173-.416 6.2 6.2 0 0 1-1.865-1.16 6 6 0 0 1-1.304-1.774 5.9 5.9 0 0 1-.58-2.137zM65.704 5.632c.072-1.503.742-2.934 1.829-3.984a5.94 5.94 0 0 1 4.093-1.63c1.52 0 2.97.58 4.074 1.63a5.9 5.9 0 0 1 1.83 3.984v63.78a5.97 5.97 0 0 1-1.866 3.912 6 6 0 0 1-4.038 1.594 5.97 5.97 0 0 1-4.039-1.594 5.9 5.9 0 0 1-1.883-3.911zm32.85 22.401a5.92 5.92 0 0 1 1.811-4.038 5.903 5.903 0 0 1 8.222 0 5.93 5.93 0 0 1 1.811 4.038v29.482a5.9 5.9 0 0 1-.58 2.137 5.9 5.9 0 0 1-3.169 2.952 5.9 5.9 0 0 1-2.173.398 5.9 5.9 0 0 1-2.173-.398 5.9 5.9 0 0 1-1.866-1.177 6 6 0 0 1-1.303-1.775 5.9 5.9 0 0 1-.58-2.137zm32.687 16.335a5.97 5.97 0 0 1 1.775-4.111 5.97 5.97 0 0 1 4.147-1.684c1.557 0 3.024.615 4.129 1.684 1.105 1.086 1.757 2.571 1.775 4.11v13.148a5.87 5.87 0 0 1-1.884 3.912 5.8 5.8 0 0 1-2.915 1.466 5.8 5.8 0 0 1-3.278-.307 5.9 5.9 0 0 1-2.608-1.992 6 6 0 0 1-1.141-3.079zm32.742-16.317a5.93 5.93 0 0 1 1.811-4.056 5.9 5.9 0 0 1 8.221 0 6 6 0 0 1 1.811 4.056v29.464a6.2 6.2 0 0 1-.579 2.137 5.9 5.9 0 0 1-3.169 2.952 6 6 0 0 1-2.173.416 5.95 5.95 0 0 1-4.039-1.593 6 6 0 0 1-1.304-1.775 5.9 5.9 0 0 1-.579-2.137zm32.578-22.419a5.9 5.9 0 0 1 1.829-4.002C199.495.598 200.962 0 202.465 0s2.988.598 4.093 1.63a5.9 5.9 0 0 1 1.829 4.002v63.763a5.93 5.93 0 0 1-1.866 3.911 5.93 5.93 0 0 1-4.056 1.594 5.88 5.88 0 0 1-4.038-1.594 5.93 5.93 0 0 1-1.866-3.911zm32.851 22.42a5.93 5.93 0 0 1 1.81-4.057 5.9 5.9 0 0 1 4.111-1.648c1.54 0 3.006.58 4.111 1.648a5.9 5.9 0 0 1 1.793 4.056v29.482a5.8 5.8 0 0 1-.561 2.119c-.326.67-.761 1.286-1.304 1.775a5.9 5.9 0 0 1-1.866 1.177 6 6 0 0 1-2.173.416 5.95 5.95 0 0 1-4.038-1.593 6 6 0 0 1-1.304-1.775 5.8 5.8 0 0 1-.579-2.119zm32.361 16.334a5.94 5.94 0 0 1 5.922-5.813c1.539 0 3.042.615 4.147 1.702a5.94 5.94 0 0 1 1.774 4.11v13.148a5.95 5.95 0 0 1-1.883 3.894 5.9 5.9 0 0 1-2.934 1.485 6.14 6.14 0 0 1-3.278-.308 6 6 0 0 1-2.589-1.992 6 6 0 0 1-1.159-3.079z" fill="currentColor"></path></svg>