<svg version="1.1" xmlns="http://www.w3.org/2000/svg" xmlns:xlink="http://www.w3.org/1999/xlink" x="0px" y="0px" viewBox="0 0 406.934 135.023" xml:space="preserve" fill="currentColor">
<path class="st0" d="M168.795,78.286v12.508h7.216c4.149,0,6.795-2.465,6.795-6.194s-2.646-6.254-6.795-6.254L168.795,78.286
	L168.795,78.286z M159.956,71.07h16.777c9.08,0,15.094,5.292,15.094,13.53c0,5.232-2.766,9.381-7.036,11.425l8.118,15.695h-9.742
	l-6.915-13.65h-7.396v13.65h-8.84L159.956,71.07L159.956,71.07z"></path>
<path class="st0" d="M216.662,93.26c-0.601-3.668-3.127-5.713-6.915-5.713c-3.788,0-6.314,2.165-6.735,5.713H216.662z
	 M194.172,96.808c0-9.321,6.194-15.334,15.515-15.334c9.381,0,15.154,5.592,15.274,14.312c0,0.902-0.06,1.864-0.241,2.766h-21.949
	v0.421c0.18,4.209,2.947,6.795,7.096,6.795c3.368,0,5.713-1.443,6.434-4.209h8.178c-0.962,5.833-6.194,10.463-14.252,10.463
	C200.245,112.022,194.172,106.068,194.172,96.808L194.172,96.808z"></path>
<path class="st0" d="M248.954,81.834h8.299v29.827h-7.336l-0.782-3.608c-1.924,2.345-4.57,3.969-8.9,3.969
	c-6.254,0-12.027-3.067-12.027-13.65V81.834h8.299v15.454c0,5.352,1.744,7.938,5.893,7.938c4.149,0,6.555-2.947,6.555-8.479V81.834
	L248.954,81.834L248.954,81.834z"></path>
<path class="st0" d="M262.184,73.476h8.299v8.359h6.915v6.915h-6.915v13.049c0,2.105,0.842,2.947,2.947,2.947h4.27v6.915h-6.915
	c-5.773,0-8.659-2.826-8.659-8.539L262.184,73.476L262.184,73.476z"></path>
<path class="st0" d="M301.571,93.26c-0.601-3.668-3.127-5.713-6.915-5.713s-6.314,2.165-6.735,5.713H301.571z M279.081,96.808
	c0-9.321,6.194-15.334,15.515-15.334c9.381,0,15.154,5.592,15.274,14.312c0,0.902-0.06,1.864-0.241,2.766H287.68v0.421
	c0.18,4.209,2.947,6.795,7.096,6.795c3.367,0,5.713-1.443,6.434-4.209h8.178c-0.962,5.833-6.194,10.463-14.252,10.463
	C285.155,112.022,279.081,106.068,279.081,96.808z"></path>
<path class="st0" d="M331.999,81.834v7.457h-3.307c-4.931,0-6.795,3.247-6.795,7.757v14.613h-8.298V81.834h7.517l0.782,4.45
	c1.624-2.646,3.969-4.45,8.719-4.45H331.999L331.999,81.834z"></path>
<path class="st0" d="M341.2,101.739c0.301,2.586,2.586,4.39,6.675,4.39c3.488,0,5.592-1.082,5.592-3.187
	c0-2.465-2.045-2.586-6.915-3.247c-7.036-0.842-12.508-2.405-12.508-8.539s5.232-9.802,12.989-9.742
	c8.118,0,13.711,3.548,14.132,9.621h-7.938c-0.241-2.405-2.526-3.849-5.893-3.849s-5.352,1.143-5.352,3.067
	c0,2.285,2.586,2.526,6.915,3.007c6.915,0.722,12.688,2.285,12.688,9.02c0,5.893-5.653,9.682-13.771,9.682
	c-8.118,0-14.132-3.909-14.492-10.283L341.2,101.739L341.2,101.739L341.2,101.739z"></path>
<polygon class="st0" points="157.678,22.483 190.331,22.483 190.331,29.999 178.364,29.999 178.364,63.133 169.584,63.133 
	169.584,29.999 157.678,29.999 "></polygon>
<path class="st0" d="M222.382,46.596v16.537h-8.299V47.258c0-4.871-1.984-7.637-6.134-7.637s-6.735,3.007-6.735,8.118v15.334h-8.299
	V22.423h8.299v14.492c1.924-2.345,4.63-4.029,8.96-4.029C216.85,32.946,222.382,36.494,222.382,46.596L222.382,46.596
	L222.382,46.596z"></path>
<path class="st0" d="M249.022,48.22c0-5.051-2.886-8.599-7.517-8.599c-4.63,0-7.457,3.548-7.457,8.599s2.826,8.599,7.457,8.599
	S249.022,53.271,249.022,48.22z M225.509,48.22c0-9.201,6.314-15.274,15.936-15.274c9.621,0,15.936,6.074,15.936,15.274
	s-6.314,15.274-15.936,15.274C231.823,63.494,225.509,57.421,225.509,48.22z"></path>
<path class="st0" d="M308.494,45.995v17.138h-8.299V46.476c0-4.45-1.624-6.795-5.232-6.795c-3.608,0-6.013,2.586-6.013,7.156v16.296
	h-8.298V46.476c0-4.45-1.624-6.795-5.292-6.795c-3.668,0-5.953,2.706-5.953,7.216v16.236h-8.298V33.307h7.216l0.782,3.728
	c1.804-2.345,4.45-4.029,8.9-4.089c3.728-0.06,7.156,1.263,9.08,5.051c2.105-3.187,5.653-5.051,10.223-5.051
	C303.503,32.946,308.434,36.434,308.494,45.995L308.494,45.995z"></path>
<path class="st0" d="M319.499,53.211c0.301,2.586,2.586,4.39,6.675,4.39c3.488,0,5.592-1.082,5.592-3.187
	c0-2.465-2.045-2.586-6.976-3.247c-7.036-0.842-12.508-2.405-12.508-8.539s5.232-9.802,12.989-9.742
	c8.118,0,13.711,3.548,14.132,9.621h-7.938c-0.241-2.405-2.526-3.849-5.893-3.849s-5.352,1.143-5.352,3.067
	c0,2.285,2.586,2.526,6.976,3.007c6.915,0.722,12.688,2.285,12.688,9.02c0,5.893-5.653,9.682-13.771,9.682
	c-8.118,0-14.132-3.909-14.492-10.283L319.499,53.211L319.499,53.211L319.499,53.211z"></path>
<path class="st0" d="M365.381,48.22c0-5.051-2.886-8.599-7.517-8.599s-7.457,3.548-7.457,8.599s2.826,8.599,7.457,8.599
	C362.495,56.819,365.381,53.271,365.381,48.22z M341.929,48.22c0-9.201,6.314-15.274,15.936-15.274S373.8,39.02,373.8,48.22
	s-6.314,15.274-15.936,15.274S341.929,57.421,341.929,48.22z"></path>
<path class="st0" d="M406.934,46.596v16.537h-8.299V47.378c0-5.051-1.924-7.697-6.134-7.697c-4.149,0-6.735,3.007-6.735,8.178
	v15.274h-8.298V33.307h7.216l0.782,3.728c1.924-2.345,4.69-4.089,9.381-4.089C401.341,32.946,406.934,36.374,406.934,46.596
	L406.934,46.596z"></path>
<path class="st1" d="M116.9,18.1c1.7,1.7,2.7,4,2.7,6.5s-0.9,4.7-2.7,6.5c-3.6,3.6-9.4,3.6-12.9,0c-1.7-1.7-2.7-4-2.7-6.5
	s0.9-4.7,2.7-6.5s4.1-2.7,6.5-2.7C112.8,15.4,115.1,16.3,116.9,18.1z"></path>
<path class="st1" d="M18.1,116.9c-3.6-3.6-3.6-9.4,0-12.9c1.7-1.7,4-2.7,6.5-2.7c2.4,0,4.7,0.9,6.5,2.7c3.6,3.6,3.6,9.4,0,12.9
	c-1.7,1.7-4,2.7-6.5,2.7C22.2,119.6,19.9,118.7,18.1,116.9z"></path>
<path class="st1" d="M87.7,18.8L87.7,18.8c-2-0.8-3.5-2.4-4.3-4.3c-0.8-2-0.8-4.1,0-6.1s2.4-3.5,4.3-4.3c1-0.4,2-0.6,3.1-0.6
	c1,0,2.1,0.2,3.1,0.6c4.1,1.7,6,6.4,4.3,10.4S91.8,20.5,87.7,18.8z"></path>
<path class="st1" d="M44.3,115.6c1,0,2.1,0.2,3.1,0.6c4.1,1.7,6,6.4,4.3,10.4c-0.8,2-2.4,3.5-4.3,4.3c-2,0.8-4.1,0.8-6.1,0
	c-4.1-1.7-6-6.4-4.3-10.4c0.8-2,2.4-3.5,4.3-4.3C42.2,115.8,43.2,115.6,44.3,115.6L44.3,115.6z"></path>
<path class="st1" d="M74.4,6.8c0,3.7-2.9,6.7-6.5,6.8h-0.3c-3.8,0-6.8-3.1-6.8-6.8S63.9,0,67.6,0C71.3,0,74.4,3,74.4,6.8L74.4,6.8z"></path>
<ellipse class="st1" cx="67.489" cy="128.223" rx="6.8" ry="6.8"></ellipse>
<path class="st1" d="M46.5,16.7c-1.4,0.6-3,0.6-4.4,0S39.6,15,39,13.6c-1.2-2.9,0.2-6.3,3.1-7.5c0.7-0.3,1.4-0.4,2.2-0.4
	c2.2,0,4.4,1.3,5.3,3.5c0.6,1.4,0.6,3,0,4.4S47.9,16.1,46.5,16.7z"></path>
<path class="st1" d="M88.6,118.3c0.7-0.3,1.5-0.4,2.2-0.4s1.5,0.2,2.2,0.4c1.4,0.6,2.5,1.7,3.1,3.1s0.6,3,0,4.4s-1.7,2.5-3.1,3.1
	s-3,0.6-4.4,0s-2.5-1.7-3.1-3.1s-0.6-3,0-4.4S87.1,118.9,88.6,118.3z"></path>
<path class="st1" d="M27.8,21.3c1.8,1.8,1.8,4.6,0.1,6.4l-0.1,0.1c-1.8,1.8-4.7,1.8-6.5,0s-1.8-4.7,0-6.5c0.9-0.9,2.1-1.3,3.2-1.3
	C25.7,20,26.9,20.5,27.8,21.3L27.8,21.3z"></path>
<path class="st1" d="M107.2,107.2c0.9-0.9,2.1-1.3,3.2-1.3s2.3,0.4,3.2,1.3c0.9,0.9,1.3,2,1.3,3.2s-0.5,2.4-1.3,3.2
	c-1.8,1.8-4.7,1.8-6.5,0c-0.9-0.9-1.3-2-1.3-3.2S106.3,108.1,107.2,107.2L107.2,107.2z"></path>
<path class="st1" d="M9.2,49.5c-2.9-1.2-4.3-4.6-3.1-7.5c0.6-1.4,1.7-2.5,3.1-3.1c0.7-0.3,1.5-0.4,2.2-0.4s1.5,0.1,2.2,0.4
	c2.9,1.2,4.3,4.6,3.1,7.5c-0.6,1.4-1.7,2.5-3.1,3.1C12.2,50.1,10.6,50.1,9.2,49.5L9.2,49.5z"></path>
<path class="st1" d="M125.8,85.5c1.4,0.6,2.5,1.7,3.1,3.1s0.6,3,0,4.4c-1.2,2.9-4.5,4.3-7.5,3.1c-1.4-0.6-2.5-1.7-3.1-3.1
	s-0.6-3,0-4.4c0.9-2.2,3-3.5,5.3-3.5C124.4,85.1,125.1,85.2,125.8,85.5z"></path>
<circle class="st1" cx="6.8" cy="67.5" r="6.8"></circle>
<ellipse class="st1" cx="128.3" cy="67.499" rx="6.8" ry="6.8"></ellipse>
<path class="st1" d="M4,93.8c-1.7-4.1,0.2-8.7,4.3-10.4c2-0.8,4.1-0.8,6.1,0s3.5,2.4,4.3,4.3c0.8,1.9,0.8,4.1,0,6.1
	s-2.4,3.5-4.3,4.3c-2,0.8-4.1,0.8-6.1,0S4.8,95.8,4,93.8z"></path>
<path class="st1" d="M116.2,47.3c-0.8-2-0.8-4.1,0-6.1s2.4-3.5,4.3-4.3c1-0.4,2-0.6,3-0.6c3.1,0,6.1,1.9,7.4,4.9
	c1.7,4.1-0.2,8.7-4.3,10.4c-2,0.8-4.1,0.8-6.1,0C118.6,50.8,117,49.3,116.2,47.3L116.2,47.3z"></path>
<path class="st1" d="M87.2,87.2c-2.4,2.4-2.4,6.2,0,8.6s6.2,2.4,8.6,0c1.2-1.2,1.8-2.7,1.8-4.3s-0.6-3.2-1.8-4.3
	c-1.2-1.2-2.7-1.8-4.3-1.8S88.4,86,87.2,87.2L87.2,87.2z M87,86.9l0.2,0.2L87,86.9z M87,86.9l0.2,0.2L87,86.9z M87,86.9
	c-2.5,2.5-2.5,6.6,0,9.1s6.6,2.5,9.1,0c1.2-1.2,1.9-2.8,1.9-4.5s-0.7-3.3-1.9-4.5c-1.2-1.2-2.9-1.9-4.5-1.9S88.2,85.7,87,86.9
	L87,86.9z"></path>
<path class="st1" d="M33.4,63.6c-2.7-0.7-4.3-3.5-3.6-6.2c0.4-1.3,1.2-2.4,2.4-3.1c0.8-0.5,1.7-0.7,2.5-0.7c0.4,0,0.9,0.1,1.3,0.2
	c1.3,0.4,2.4,1.2,3.1,2.4s0.9,2.6,0.5,3.9C38.9,62.7,36.1,64.4,33.4,63.6L33.4,63.6z"></path>
<path class="st1" d="M99,81.2c-1.3-0.4-2.4-1.2-3.1-2.4s-0.9-2.6-0.5-3.9s1.2-2.4,2.4-3.1c0.8-0.5,1.7-0.7,2.5-0.7
	c0.4,0,0.7,0,1.1,0.1l0.2,0.1c2.7,0.7,4.3,3.5,3.6,6.2c-0.4,1.3-1.2,2.4-2.4,3.1C101.6,81.3,100.3,81.5,99,81.2L99,81.2z"></path>
<path class="st1" d="M30.8,77.3c-0.6-2.1,0.6-4.2,2.6-4.9l0.2-0.1c2.2-0.6,4.4,0.7,5,2.9c0.3,1.1,0.1,2.1-0.4,3.1
	c-0.5,0.9-1.4,1.6-2.5,1.9s-2.1,0.1-3.1-0.4C31.8,79.3,31.1,78.4,30.8,77.3L30.8,77.3z"></path>
<path class="st1" d="M98.2,62.3L98,62.2c-0.8-0.6-1.5-1.4-1.7-2.4c-0.6-2.2,0.7-4.4,2.9-5c2.2-0.6,4.4,0.7,5,2.9s-0.7,4.4-2.9,5
	C100.3,63,99.2,62.8,98.2,62.3L98.2,62.3z"></path>
<path class="st1" d="M45.8,93.5L45.8,93.5c-1.3,1.3-3.2,1.3-4.4,0.1c-1.2-1.2-1.2-3.1,0-4.3s3.1-1.2,4.3,0c0.6,0.6,0.9,1.3,0.9,2.2
	C46.6,92.2,46.3,92.9,45.8,93.5z"></path>
<path class="st1" d="M93.6,41.3c0.6,0.6,0.9,1.3,0.9,2.2s-0.3,1.6-0.9,2.2c-1.2,1.2-3.1,1.2-4.3,0c-0.6-0.6-0.9-1.3-0.9-2.2
	s0.3-1.6,0.9-2.2c0.6-0.6,1.3-0.9,2.2-0.9S93.1,40.8,93.6,41.3L93.6,41.3z"></path>
<path class="st1" d="M62.3,98.2c0.5,0.9,0.7,2,0.4,3.1s-1,1.9-1.9,2.5s-2,0.7-3.1,0.4c-2.2-0.6-3.5-2.8-2.9-5c0.3-1.1,1-1.9,1.9-2.5
	c0.9-0.5,2-0.7,3.1-0.4C60.8,96.6,61.7,97.3,62.3,98.2L62.3,98.2z"></path>
<path class="st1" d="M72.7,36.8c-0.5-0.9-0.7-2-0.4-3.1c0.3-1.1,1-1.9,1.9-2.5c0.6-0.4,1.3-0.5,2-0.5c0.4,0,0.7,0,1.1,0.1
	c1.1,0.3,1.9,1,2.5,1.9c0.5,0.9,0.7,2,0.4,3.1c-0.6,2.2-2.8,3.5-5,2.9C74.2,38.4,73.3,37.8,72.7,36.8z"></path>
<path class="st1" d="M78.9,95.9l0.2,0.1c1.1,0.7,1.8,1.7,2.1,3c0.7,2.7-0.9,5.5-3.6,6.2c-1.3,0.4-2.7,0.2-3.9-0.5
	c-1.2-0.7-2-1.8-2.4-3.1s-0.2-2.7,0.5-3.9s1.8-2,3.1-2.4c0.4-0.1,0.9-0.2,1.3-0.2C77.2,95.2,78.1,95.4,78.9,95.9L78.9,95.9z"></path>
<path class="st1" d="M60.1,39.7c-2.7,0.7-5.5-0.9-6.2-3.6c-0.7-2.7,0.9-5.5,3.6-6.2c0.4-0.1,0.9-0.2,1.3-0.2c2.2,0,4.3,1.5,4.9,3.8
	C64.4,36.2,62.8,38.9,60.1,39.7z"></path>
<circle class="st1" cx="43.5" cy="43.5" r="6.4"></circle>
</svg>