<svg width="460" height="116" viewBox="0 0 460 116" fill="none" xmlns="http://www.w3.org/2000/svg"><path fill-rule="evenodd" clip-rule="evenodd" d="M44.22.15c1.72-.296 3.501-.088 5.223.06 13.265.95 25.849 8.22 33.476 19.083 6.885 9.645 9.734 22.05 7.746 33.743-1.662 10.506-7.212 20.3-15.314 27.185-7.954 6.885-18.37 10.861-28.906 11.01-8.25.148-16.53-1.959-23.653-6.114a7.45 7.45 0 0 1-3.561-5.045c-.148-1.335-.178-2.73.356-4.006.89-2.375 3.087-4.274 5.61-4.66 1.69-.356 3.501-.03 4.985.801a30.7 30.7 0 0 0 13.028 4.066q2.316.09 4.63 0c6.737-.474 13.295-3.234 18.311-7.775 5.817-5.164 9.556-12.613 10.12-20.389.83-9.08-2.76-18.459-9.437-24.72-4.927-4.75-11.486-7.747-18.282-8.37-1.75-.237-3.561.119-5.253-.475-3.234-.979-5.49-4.392-5.074-7.775.178-3.235 2.819-6.054 5.994-6.618m254.454 10.21c1.513-.86 3.294-.416 4.956-.534 1.513.089 3.086-.178 4.57.207 1.632.505 2.908 2.137 2.879 3.858v14.157q5.92.045 11.841 0c1.692-.149 3.443.86 4.155 2.433.534 1.128.267 2.434.326 3.65-.059 1.306.238 2.671-.356 3.888-.682 1.484-2.255 2.493-3.888 2.434q-6.055-.03-12.078-.03v28.401c.089 2.226.564 4.6 2.047 6.322 1.514 1.78 3.888 2.463 6.144 2.582 1.513.207 3.056-.03 4.57-.297 1.721-.208 3.472 1.216 3.561 2.968.03 2.107 0 4.214 0 6.35.06 1.425-.949 2.73-2.285 3.146-5.253 1.603-10.981 1.81-16.233.178-3.918-1.216-7.39-3.917-9.438-7.478-2.107-3.591-2.849-7.805-2.879-11.93V40.452c-1.721-.03-3.442 0-5.163-.03-1.781-.03-3.443-1.336-3.888-3.086-.267-1.603-.03-3.235-.119-4.838-.119-1.691.861-3.383 2.434-4.066.92-.474 1.958-.356 2.967-.356 1.247 0 2.493 0 3.769-.03V14.13c-.029-1.514.772-3.057 2.108-3.77M4.125 26.564c1.158-2.256 3.502-3.829 5.995-4.036 2.968-.267 5.995 1.365 7.3 4.036 1.069 2.107 1.069 4.689 0 6.766-3.857 8.696-3.323 19.201 1.455 27.452 1.038 1.691 1.543 3.74 1.009 5.698-.712 3.561-4.333 6.202-7.924 5.787-2.315-.178-4.481-1.514-5.668-3.502C2.463 62.355.326 54.995 0 47.545v-3.858c.267-5.905 1.632-11.752 4.125-17.123m121.737 1.662c8.191-2.998 17.747-1.87 25.077 2.849 6.767 4.273 11.486 11.396 13.326 19.112 1.958 8.19 1.127 17.124-2.76 24.662-3.324 6.5-9.022 11.87-15.908 14.423-7.716 2.968-16.767 2.493-24.009-1.573-2.789-1.602-5.312-3.71-7.152-6.35-.089 10.149-.03 20.299-.059 30.448-.03 2.018-1.722 3.829-3.74 3.977-1.691.059-3.383 0-5.074 0-.891 0-1.84.089-2.731-.148-1.751-.446-3.056-2.226-2.967-4.037V32.024c0-2.107 1.958-4.036 4.095-3.976q3.204.03 6.44.03c2.107 0 3.917 1.869 3.977 3.946.029 1.573-.03 3.176.059 4.749 2.76-3.977 6.915-6.856 11.426-8.547m4.689 11.633c-2.612.238-5.194 1.01-7.449 2.315a18.64 18.64 0 0 0-7.776 8.844c-1.691 3.917-2.018 8.369-1.038 12.524 1.098 4.837 4.155 9.23 8.458 11.782 5.846 3.59 13.8 3.442 19.528-.386 3.887-2.552 6.677-6.648 7.775-11.159 1.039-4.303.742-8.933-1.068-12.999-1.662-3.739-4.541-6.944-8.191-8.843-3.116-1.692-6.737-2.404-10.239-2.078m69.92-13.058c4.689-.504 9.556-.208 14.097 1.158 7.597 2.196 14.304 7.27 18.34 14.096 6.055 10.09 6.055 23.505 0 33.595-3.294 5.55-8.339 10.031-14.245 12.613-8.309 3.68-18.044 3.858-26.502.653-7.182-2.671-13.266-8.102-16.767-14.898-4.274-8.25-4.779-18.311-1.484-26.977 2.552-6.826 7.567-12.672 13.948-16.204 3.858-2.196 8.191-3.561 12.613-4.036m1.84 13.266c-4.689.564-9.081 3.086-11.96 6.826-4.897 6.143-5.372 15.313-1.336 21.99 2.108 3.592 5.491 6.44 9.438 7.836 2.849 1.068 5.995 1.276 9.022.86 4.155-.623 8.042-2.849 10.802-6.024 4.482-5.105 5.817-12.613 3.621-19.024-1.246-3.798-3.739-7.211-7.063-9.437-3.621-2.523-8.191-3.591-12.524-3.027m56.565-1.573c2.938-7.241 10.773-11.9 18.519-11.663 1.365 0 2.611 1.335 2.493 2.7v9.408c.059 1.543-1.484 2.79-2.968 2.642-3.591-.179-7.271.682-10.239 2.79-4.244 2.937-6.588 7.982-7.33 12.968-.534 3.354-.386 6.737-.416 10.12v18.163c.03 2.047-1.75 3.977-3.858 4.006-2.136.03-4.303 0-6.469.03-1.781.089-3.502-1.217-4.007-2.909-.296-.89-.178-1.84-.207-2.76 0-17.242.029-34.485 0-51.698-.03-2.018 1.543-3.887 3.531-4.184 1.603-.09 3.205-.03 4.838-.03 1.187.03 2.492-.208 3.62.327 1.336.593 2.315 1.958 2.434 3.413.029 2.225-.089 4.451.059 6.677m162.84-7.241c3.739-2.968 8.488-4.54 13.236-4.66 4.422-.178 8.993.535 12.969 2.582 4.066 2.048 7.331 5.52 9.26 9.616 1.81 3.71 2.582 7.805 2.819 11.87v35.495c-.297 1.87-1.988 3.472-3.917 3.472h-6.708c-2.136.03-4.036-1.929-3.976-4.095V55.499c.029-4.155-.92-8.577-3.829-11.693-3.056-3.235-7.864-4.214-12.138-3.59-3.531.444-6.766 2.433-8.814 5.312-2.463 3.383-3.324 7.656-3.354 11.782v28.312c.03 2.107-1.84 4.036-3.947 4.006h-6.677c-2.137.03-4.036-1.9-3.977-4.036-.029-17.777 0-35.553-.029-53.3-.09-2.197 1.81-4.215 3.976-4.215q3.354-.03 6.707 0c1.989.03 3.829 1.721 3.947 3.71.03 1.484-.029 2.938.03 4.392 1.187-1.87 2.701-3.532 4.422-4.926m-85.322.771c.029-2.107 1.899-3.947 4.006-3.947 2.137-.03 4.303 0 6.44-.03 1.751-.059 3.443 1.158 3.977 2.82.326.95.237 2.018.237 3.027v29.41c.06 3.947 1.217 8.132 4.125 10.981 1.811 1.81 4.304 2.908 6.856 3.235 3.828.564 7.953-.267 10.951-2.79 3.175-2.552 4.837-6.559 5.401-10.535.416-2.938.238-5.936.267-8.933V32.024c-.029-2.136 1.959-4.006 4.066-3.947 2.226 0 4.452-.03 6.677 0 2.048.06 3.858 1.9 3.829 3.947 0 17.866 0 35.702.029 53.568.06 2.078-1.78 4.007-3.858 4.036-2.225.03-4.481 0-6.707 0-2.047.06-3.976-1.721-4.036-3.799-.029-1.424 0-2.849 0-4.243-1.959 2.878-4.6 5.371-7.716 7.004-5.104 2.67-11.159 3.175-16.738 2.017-4.006-.83-7.805-2.7-10.714-5.579-3.205-3.205-5.282-7.449-6.232-11.87-1.128-4.571-.86-9.32-.89-13.979.03-9.052 0-18.103.03-27.155" fill="currentColor"></path><path d="M18.43 6.56c1.87-1.632 4.393-2.64 6.915-2.463 3.206.12 6.262 2.048 7.806 4.838 1.394 2.374 1.454 5.253.712 7.835-.267.623-.594 1.217-.92 1.81-1.573 2.552-4.392 4.303-7.39 4.452-3.65.326-7.33-1.751-9.051-4.956-.713-1.366-1.098-2.88-1.187-4.393.059-2.67 1.187-5.282 3.116-7.122" fill="currentColor"></path></svg>