<svg width="207" height="144" viewBox="0 0 207 144" fill="none" xmlns="http://www.w3.org/2000/svg"><path d="M55.325 142.751H.168v-13.113l33.927-41.316H1.105V72.087H55.22v13.737l-33.615 40.692H55.22v16.235zm72.12-28.931H77.908c.416 4.267 1.977 7.493 4.787 9.783s6.348 3.538 10.511 3.851c4.163.312 8.43-.209 12.801-1.666a34.1 34.1 0 0 0 11.76-6.764l9.366 12.905c-5.204 4.37-10.407 7.389-15.819 9.262-5.307 1.873-10.615 2.81-15.818 2.81-11.968 0-20.919-3.331-26.955-9.991s-8.95-16.131-8.95-28.411c0-6.973 1.353-13.009 4.163-18.213 2.81-5.203 6.765-9.158 11.864-12.072 5.1-2.81 11.24-4.162 18.212-4.058 15.299.208 25.498 6.14 30.597 18.004 1.457 3.434 2.29 7.076 2.81 11.135.416 3.955.52 8.43.208 13.425m-31.95-26.85q-8.585 0-13.112 4.683c-3.018 3.122-4.475 6.557-4.475 10.303h34.967c0-3.85-1.457-7.285-4.475-10.407-2.914-3.018-7.285-4.579-12.904-4.579m58.489 56.406c-7.181-.416-12.593-2.394-16.235-6.14-3.643-3.747-5.516-8.846-5.516-15.507 0-4.787 1.249-8.95 3.642-12.384 2.498-3.434 5.724-6.14 9.783-8.118 4.059-1.977 8.534-3.226 13.529-3.642 4.995-.52 9.991-.104 15.09 1.04v-4.37c0-3.018-1.249-5.204-3.642-6.557-2.498-1.353-5.412-1.977-8.95-1.873-3.539.104-7.077.729-10.615 2.081-3.539 1.25-6.349 3.123-8.534 5.412l-9.471-10.303c3.539-3.538 7.806-6.244 12.697-8.221a48.1 48.1 0 0 1 15.194-3.435c5.204-.312 10.199.313 14.882 1.874 4.684 1.457 8.534 3.954 11.552 7.389 2.394 2.601 3.643 6.14 3.955 10.51.312 4.372.416 9.055.416 14.258v37.362h-17.38v-6.557c-2.914 2.706-6.14 4.683-9.782 5.724-3.539 1.041-7.077 1.561-10.615 1.457m19.877-20.606v-12.176c-9.783-.729-16.651-.104-20.398 1.873-3.85 1.977-5.724 4.995-5.724 9.158 0 2.602.937 4.579 2.81 5.724 1.874 1.145 4.163 1.769 6.973 1.665 2.81 0 5.62-.624 8.638-1.665 2.81-1.041 5.411-2.602 7.701-4.579m-62.443-78.677c-.417.416-.833.833-1.041 1.249-.833 1.249-1.249 2.706-1.353 4.267l-.52 13.113c-.104 3.122 1.353 5.828 3.954 7.493l5.516 3.434.416.208 5.1 3.226c2.602 1.665 5.724 1.77 8.43.313l11.447-6.14q2.03-1.095 3.122-2.81c.833-1.25 1.249-2.706 1.353-4.267l.417-10.824c0-1.144.416-2.081.936-3.018 2.394-3.746 8.846-5.307 12.072-3.434l.209.104 11.968 7.493c3.434 2.185 7.493 2.29 11.031.416l14.986-8.013c1.769-.937 3.122-2.185 4.163-3.747a11.55 11.55 0 0 0 1.769-5.62l.625-16.963c.104-4.059-1.77-7.597-5.204-9.782l-14.466-9.055c-3.434-2.185-7.493-2.29-11.031-.416 0 0-16.86 8.742-19.253 12.385-.937 1.457-1.457 3.018-1.561 4.579 0 .104-.521 14.465-.521 14.465-.312 2.394-.936 4.371-1.977 5.828-2.498 3.955-7.389 4.475-14.882.417l-3.746-2.29c-2.186-1.353-4.684-1.977-6.869-.937zm49.537-5.828c1.041-8.221 1.561-19.357 1.561-19.357V18.7q0-.156.312-.624c1.041-1.666 16.339-9.68 16.339-9.68 1.041-.52 1.978-.52 3.019.105l14.465 9.054c1.041.625 1.457 1.457 1.457 2.602l-.624 16.963c0 .625-.208 1.145-.416 1.561-.209.417-.625.729-1.145 1.041l-14.986 8.014c-1.041.52-1.978.52-3.018-.105-.209 0-10.616-6.556-16.964-9.366m-44.334 24.977v-.208l.417-13.009v-.208s.104-.104.208-.104l11.447-6.14c.104-.104.209-.104.209-.104s.104 0 .208.104c0 0 7.805 4.475 11.864 5.62-.833 2.705-1.041 14.673-1.041 14.673v.209s-.104.104-.208.104l-11.448 6.14c-.104.104-.208.104-.208.104s-.104 0-.208-.104L116.83 63.45c-.208-.104-.208-.208-.208-.208" fill="currentColor"></path><path d="M119.224 39.93s-6.452 3.85-8.742 2.497l.625 1.666 5.62.832 2.601-3.33zm-10.406 16.235s.52-7.702-1.978-8.95l1.77-.313 3.434 4.475-1.769 3.851z" fill="currentColor"></path><path d="M118.183 40.866c-3.33 4.267-10.407 1.874-10.095-2.081.209-3.018.313-4.475.313-4.475.104-2.498-.209-3.85-1.77-5.204l-3.122-2.81-3.122-2.81a5.2 5.2 0 0 0-3.538-1.352q-.937 0-1.874.312l-4.058 1.353-3.955 1.145c-1.873.624-3.226 2.081-3.642 4.058l-.833 4.163-.832 4.163c-.417 1.977.208 3.85 1.769 5.204l3.122 2.81 3.122 2.81a5.2 5.2 0 0 0 3.538 1.352q.938 0 1.874-.312s4.89-1.665 7.805-2.602c3.226-1.04 8.117 1.978 6.036 7.91zm-16.963-.832c-2.498.208-7.597 2.602-7.597 2.602l-5.516-4.788 1.353-7.18 6.868-2.394 5.516 4.787s-.832 4.58-.624 6.973" fill="currentColor"></path></svg>