<svg width="465" height="81" viewBox="0 0 465 81" fill="none" xmlns="http://www.w3.org/2000/svg"><path d="M408.542 80.135h-24.106c.007-.368.028-.736.028-1.104V8.941q-.002-.552.007-1.104c.148-3.77 2.631-6.79 6.295-7.66.156-.036.304-.113.453-.177h51.098c.127.05.248.127.382.149 8.099 1.195 13.857 7.83 13.864 16 .007 7.971.099 15.95-.028 23.922-.106 6.642-3.297 11.473-9.224 14.486-.269.134-.538.269-.87.432.205.31.361.565.537.813 5.15 7.328 10.306 14.663 15.463 21.984.516.736 1.068 1.443 1.598 2.165-.226.056-.452.162-.679.162q-10.44.009-20.88.007c-1.493-.445-2.419-1.506-3.282-2.744-4.117-5.92-8.283-11.799-12.421-17.698-1.097-1.563-2.49-2.73-4.329-3.225-.997-.269-2.058-.333-3.091-.396-1.082-.064-2.165-.015-3.339-.015.135-.353.205-.565.29-.77 1.33-3.332 2.646-6.664 3.99-9.988 1.365-3.374 4.116-5.213 7.766-5.242 2.858-.02 4.435-1.612 4.435-4.491V20.534c0-2.978-1.57-4.534-4.562-4.534h-19.424v44.605c0 6.507.007 13.008.015 19.515zm-350.21-.001H.11c.064-.269.106-.552.198-.806q1.773-4.762 3.565-9.514c1.443-3.834 4.117-5.68 8.22-5.68h25.195c.849 0 1.698-.035 2.54-.134 1.442-.17 2.772-.594 3.614-1.91 1.422-2.235.898-5.489-1.195-7.102a15.5 15.5 0 0 0-2.575-1.627 413 413 0 0 0-9.613-4.626c-6.868-3.175-13.772-6.28-20.633-9.464-3.933-1.825-7.066-4.52-8.488-8.75C.464 29.1.337 27.536.224 26.03c-.361-4.746-.361-9.493.572-14.19C1.956 5.99 5.338 2.165 11.138.602c1.004-.269 2.037-.396 3.056-.594h57.888c-1.259 3.416-2.51 6.833-3.784 10.242-1.486 3.975-4.16 5.829-8.39 5.829H34.283c-1.047 0-2.094-.008-3.14.063-1.125.078-2.073.517-2.618 1.599-1.45 2.858-.601 6.783 2.016 8.608 1.309.913 2.752 1.677 4.216 2.327 9.174 4.046 18.377 8.022 27.544 12.082a27.3 27.3 0 0 1 4.548 2.596c2.666 1.86 4.371 4.442 4.76 7.703.715 5.977.891 11.975-.417 17.895-1.21 5.503-4.598 9.075-10.065 10.589-.92.255-1.868.396-2.802.594zM266.459.007h25.634c.078.035.149.092.226.106 3.332.538 5.419 2.49 6.642 5.588 9.67 24.523 19.367 49.033 29.051 73.549.113.283.163.587.24.884h-23.087c-1.74-.601-2.646-1.895-3.282-3.579-1.903-5.015-3.919-9.988-5.892-14.981-1.45-3.664-4.16-5.51-8.107-5.51h-18.482c0-.17-.029-.262 0-.333 1.485-3.692 2.9-7.42 4.477-11.07 1.068-2.468 3.063-3.99 5.723-4.428 1.294-.212 2.645-.141 3.975-.17 1.259-.02 2.518 0 3.819 0-.042-.219-.042-.332-.084-.431-3.042-7.696-6.076-15.392-9.146-23.073-.099-.248-.51-.503-.785-.51-1.274-.056-2.547.021-3.82-.042-.693-.036-.962.22-1.21.849-7.787 19.756-15.597 39.505-23.391 59.26-.524 1.337-1.005 2.688-1.507 4.032H235.4c-.587-.318-1.245-.551-1.754-.969-1.5-1.216-1.769-2.956-.899-5.163q10.133-25.626 20.266-51.261c2.284-5.772 4.569-11.544 6.833-17.33 1.053-2.688 2.935-4.435 5.736-5.17q.444-.119.877-.248m-151.936 0h25.634c.07.043.134.113.212.127 3.211.566 5.27 2.455 6.458 5.461a46520 46520 0 0 0 24.262 61.411c1.733 4.379 3.487 8.757 5.234 13.129h-23.257c-1.733-.616-2.632-1.91-3.268-3.594-1.903-5.015-3.919-9.987-5.892-14.981-1.45-3.657-4.167-5.496-8.114-5.496h-18.497c.015-.17 0-.262.036-.333 1.471-3.67 2.893-7.356 4.435-10.999.983-2.327 2.822-3.82 5.27-4.407 1.082-.261 2.242-.233 3.366-.261 1.627-.043 3.254-.007 4.931-.007-.043-.213-.05-.326-.092-.432-3.042-7.696-6.076-15.392-9.146-23.073-.099-.248-.51-.503-.785-.517-1.274-.056-2.547.022-3.82-.042-.693-.035-.969.226-1.21.849-7.321 18.575-14.663 37.142-21.998 55.71-.997 2.518-1.945 5.05-2.921 7.575H83.308c-2.943-1.322-3.799-3.161-2.716-5.906 9.06-22.953 18.129-45.9 27.19-68.845.962-2.433 2.631-4.117 5.121-4.952.53-.176 1.089-.283 1.634-.424zm101.856 80.127h-24.106V16h-27.919c-.049-.156-.077-.212-.077-.262 0-2.603-.022-5.206-.007-7.809.021-3.346 2.171-6.33 5.34-7.427.58-.198 1.188-.332 1.782-.495h72.998q-1.954 5.145-3.898 10.292c-1.45 3.848-4.109 5.715-8.198 5.715h-15.957V79.37c0 .255.021.51.035.757zm124.089 0c0-.368-.022-.735-.022-1.103V9.01c0-5.078 2.087-7.745 6.996-8.926.056-.015.099-.05.148-.078h16.807c.014.368.049.735.049 1.096v78.013c0 .34-.028.672-.049 1.011H340.46z" fill="currentColor"></path></svg>